<svg version="1.1" viewBox="0.0 0.0 960.0 960.0" fill="none" stroke="none" stroke-linecap="square" stroke-miterlimit="10" xmlns:xlink="http://www.w3.org/1999/xlink" xmlns="http://www.w3.org/2000/svg"><clipPath id="p.0"><path d="m0 0l960.0 0l0 960.0l-960.0 0l0 -960.0z" clip-rule="nonzero"/></clipPath><g clip-path="url(#p.0)"><path fill="#2e8b57" d="m0 0l960.0 0l0 960.0l-960.0 0z" fill-rule="evenodd"/><path fill="#ffffff" d="m-233.09103 259.4486c0 -10.54184 8.545853 -19.087692 19.087692 -19.087692l91.628716 0c5.0623703 0 9.917397 2.0110168 13.497032 5.5906525c3.5796432 3.5796356 5.59066 8.434677 5.59066 13.49704l0 338.92957c0 10.541809 -8.545853 19.087708 -19.087692 19.087708l-91.628716 0c-10.54184 0 -19.087692 -8.545898 -19.087692 -19.087708z" fill-rule="evenodd"/><path fill="#ffffff" d="m-224.18202 463.23334l111.98608 0l0 190.58765l-55.993034 47.646973l-55.993042 -47.646973z" fill-rule="evenodd"/><path stroke="#ffffff" stroke-width="18.31496062992126" stroke-linejoin="round" stroke-linecap="butt" d="m-224.18202 463.23334l111.98608 0l0 190.58765l-55.993034 47.646973l-55.993042 -47.646973z" fill-rule="evenodd"/><path fill="#ffffff" d="m-619.755 260.06863c0 -10.884277 8.823486 -19.707718 19.707703 -19.707718l309.51724 0c5.2268066 0 10.239532 2.0763397 13.935455 5.7722626c3.6958923 3.6959076 5.7722473 8.708649 5.7722473 13.935455l0 429.22543c0 10.884277 -8.823456 19.707703 -19.707703 19.707703l-309.51724 0c-10.884216 0 -19.707703 -8.823425 -19.707703 -19.707703z" fill-rule="evenodd"/><path fill="#333333" d="m-486.43738 277.16678l179.10562 0l0 397.6332l-179.10562 0z" fill-rule="evenodd"/><path fill="#38761d" d="m-584.3593 277.16678l60.815613 0l0 397.6332l-60.815613 0z" fill-rule="evenodd"/><path fill="#e06666" d="m-198.87323 277.938l59.469513 0l0 35.67209l-59.469513 0z" fill-rule="evenodd"/><path fill="#b7b7b7" d="m-198.87323 313.61008l59.469513 0l0 35.67209l-59.469513 0z" fill-rule="evenodd"/><path fill="#f1c232" d="m-198.87323 521.6712l59.469513 0l0 116.01764l-29.734756 29.004395l-29.734756 -29.004395z" fill-rule="evenodd"/><path fill="#f1c232" d="m-198.87323 349.28217l59.469513 0l0 175.40381l-59.469513 0z" fill-rule="evenodd"/><path fill="#333333" d="m-523.5437 277.1688l37.11435 0l0 397.6332l-37.11435 0z" fill-rule="evenodd"/><path fill="#000000" fill-opacity="0.0" d="m703.4695 766.9344l90.95276 76.82031l90.18768 -76.653564l0 -650.72815l-181.32922 0z" fill-rule="evenodd"/><path stroke="#ffffff" stroke-width="39.29658792650918" stroke-linejoin="round" stroke-linecap="butt" d="m703.4695 766.9344l90.95276 76.82031l90.18768 -76.653564l0 -650.72815l-181.32922 0z" fill-rule="evenodd"/><path fill="#000000" fill-opacity="0.0" d="m726.71277 749.9942l67.58716 72.28424l67.018616 -72.12732l0 -612.30383l-134.74603 0z" fill-rule="evenodd"/><path stroke="#ffffff" stroke-width="39.29658792650918" stroke-linejoin="round" stroke-linecap="butt" d="m726.71277 749.9942l67.58716 72.28424l67.018616 -72.12732l0 -612.30383l-134.74603 0z" fill-rule="evenodd"/><path fill="#000000" fill-opacity="0.0" d="m742.7091 234.69148l102.46661 0" fill-rule="evenodd"/><path stroke="#ffffff" stroke-width="39.29658792650918" stroke-linejoin="round" stroke-linecap="butt" d="m742.7091 234.69148l102.46661 0" fill-rule="evenodd"/><path fill="#000000" fill-opacity="0.0" d="m742.7091 255.19426l102.46661 0" fill-rule="evenodd"/><path stroke="#ffffff" stroke-width="39.29658792650918" stroke-linejoin="round" stroke-linecap="butt" d="m742.7091 255.19426l102.46661 0" fill-rule="evenodd"/><path fill="#000000" fill-opacity="0.0" d="m238.15224 115.99483l-161.34933 0l0 727.3961l530.5865 0l0 -727.0545z" fill-rule="evenodd"/><path stroke="#ffffff" stroke-width="39.29658792650918" stroke-linejoin="round" stroke-linecap="butt" d="m238.15224 115.99483l-161.34933 0l0 727.3961l530.5865 0l0 -727.0545z" fill-rule="evenodd"/><path fill="#000000" fill-opacity="0.0" d="m232.88356 123.9116l0 706.74634" fill-rule="evenodd"/><path stroke="#ffffff" stroke-width="39.29658792650918" stroke-linejoin="round" stroke-linecap="butt" d="m232.88356 123.9116l0 706.74634" fill-rule="evenodd"/><path fill="#000000" fill-opacity="0.0" d="m254.44075 123.9116l0 706.74634" fill-rule="evenodd"/><path stroke="#ffffff" stroke-width="39.29658792650918" stroke-linejoin="round" stroke-linecap="butt" d="m254.44075 123.9116l0 706.74634" fill-rule="evenodd"/><path fill="#000000" fill-opacity="0.0" d="m246.20702 138.61621l-148.86267 0l0 683.7791l489.52496 0l0 -683.458z" fill-rule="evenodd"/><path stroke="#ffffff" stroke-width="39.29658792650918" stroke-linejoin="round" stroke-linecap="butt" d="m246.20702 138.61621l-148.86267 0l0 683.7791l489.52496 0l0 -683.458z" fill-rule="evenodd"/></g></svg>