<svg version="1.1" viewBox="0.0 0.0 286.0 150.0" fill="none" stroke="none" stroke-linecap="square" stroke-miterlimit="10" xmlns:xlink="http://www.w3.org/1999/xlink" xmlns="http://www.w3.org/2000/svg"><clipPath id="p.0"><path d="m0 0l286.0 0l0 150.0l-286.0 0l0 -150.0z" clip-rule="nonzero"/></clipPath><g clip-path="url(#p.0)"><path fill="#006400" d="m0 0l286.0 0l0 150.0l-286.0 0z" fill-rule="evenodd"/><path fill="#000000" fill-opacity="0.0" d="m81.29921 110.12336l123.40158 0l0 29.79528l-123.40158 0z" fill-rule="evenodd"/><path fill="#ffffff" d="m117.63458 131.741l-9.046875 0l0 -13.5625l3.40625 0l0 10.96875l5.640625 0l0 2.59375zm8.379456 0l-7.296875 0l0 -2.375l1.953125 0l0 -8.828125l-1.953125 0l0 -2.359375l7.296875 0l0 2.359375l-1.9375 0l0 8.828125l1.9375 0l0 2.375zm13.112152 -4.15625q0 1.015625 -0.390625 1.78125q-0.375 0.765625 -1.015625 1.265625q-0.765625 0.59375 -1.6875 0.859375q-0.90625 0.25 -2.328125 0.25l-5.421875 0l0 -13.5625l4.78125 0q1.5 0 2.265625 0.109375q0.78125 0.109375 1.453125 0.484375q0.71875 0.390625 1.078125 1.046875q0.359375 0.65625 0.359375 1.515625q0 0.984375 -0.5 1.765625q-0.484375 0.765625 -1.359375 1.140625l0 0.0625q1.25 0.265625 2.0 1.09375q0.765625 0.8125 0.765625 2.1875zm-4.359375 -5.578125q0 -0.328125 -0.171875 -0.671875q-0.171875 -0.34375 -0.515625 -0.5q-0.34375 -0.140625 -0.8125 -0.15625q-0.453125 -0.015625 -1.359375 -0.015625l-0.234375 0l0 2.875l0.421875 0q0.875 0 1.21875 -0.015625q0.359375 -0.03125 0.734375 -0.203125q0.40625 -0.1875 0.5625 -0.515625q0.15625 -0.34375 0.15625 -0.796875zm0.859375 5.515625q0 -0.625 -0.265625 -0.984375q-0.25 -0.359375 -0.765625 -0.53125q-0.296875 -0.125 -0.84375 -0.140625q-0.546875 -0.015625 -1.453125 -0.015625l-0.625 0l0 3.40625l0.171875 0q1.328125 0 1.84375 -0.015625q0.515625 -0.015625 1.046875 -0.25q0.453125 -0.203125 0.671875 -0.578125q0.21875 -0.390625 0.21875 -0.890625zm18.001968 4.21875l-4.15625 0l-3.78125 -4.96875l-1.21875 0l0 4.96875l-3.390625 0l0 -13.5625l5.453125 0q1.125 0 1.96875 0.140625q0.84375 0.140625 1.546875 0.59375q0.734375 0.453125 1.15625 1.171875q0.421875 0.71875 0.421875 1.8125q0 1.5625 -0.703125 2.53125q-0.6875 0.96875 -1.875 1.546875l4.578125 5.765625zm-5.484375 -9.40625q0 -0.515625 -0.203125 -0.875q-0.1875 -0.375 -0.65625 -0.578125q-0.3125 -0.140625 -0.703125 -0.171875q-0.390625 -0.03125 -0.96875 -0.03125l-1.140625 0l0 3.640625l0.96875 0q0.71875 0 1.203125 -0.078125q0.5 -0.09375 0.84375 -0.375q0.328125 -0.25 0.484375 -0.609375q0.171875 -0.359375 0.171875 -0.921875zm11.967697 9.6875q-2.734375 0 -4.203125 -1.3125q-1.46875 -1.328125 -1.46875 -3.875l0 -8.65625l3.40625 0l0 8.46875q0 1.40625 0.53125 2.09375q0.53125 0.6875 1.734375 0.6875q1.171875 0 1.71875 -0.65625q0.5625 -0.671875 0.5625 -2.125l0 -8.46875l3.40625 0l0 8.65625q0 2.5 -1.4375 3.84375q-1.4375 1.34375 -4.25 1.34375zm12.485794 -0.03125q-1.5625 0 -2.75 -0.296875q-1.171875 -0.3125 -2.171875 -0.75l0 -3.234375l0.296875 0q1.03125 0.875 2.25 1.34375q1.234375 0.453125 2.390625 0.453125q0.296875 0 0.765625 -0.0625q0.484375 -0.0625 0.78125 -0.203125q0.34375 -0.15625 0.59375 -0.421875q0.25 -0.28125 0.25 -0.734375q0 -0.515625 -0.40625 -0.828125q-0.390625 -0.328125 -0.953125 -0.46875q-0.6875 -0.1875 -1.484375 -0.34375q-0.78125 -0.171875 -1.46875 -0.40625q-1.578125 -0.5625 -2.265625 -1.5q-0.671875 -0.9375 -0.671875 -2.34375q0 -1.90625 1.609375 -3.078125q1.609375 -1.1875 4.03125 -1.1875q1.203125 0 2.40625 0.25q1.203125 0.25 2.140625 0.65625l0 3.109375l-0.296875 0q-0.75 -0.65625 -1.84375 -1.09375q-1.09375 -0.453125 -2.234375 -0.453125q-0.453125 0 -0.8125 0.0625q-0.34375 0.0625 -0.734375 0.25q-0.328125 0.140625 -0.5625 0.4375q-0.21875 0.28125 -0.21875 0.640625q0 0.515625 0.359375 0.828125q0.375 0.296875 1.421875 0.546875q0.6875 0.15625 1.3125 0.296875q0.640625 0.140625 1.359375 0.40625q1.421875 0.5 2.109375 1.375q0.6875 0.859375 0.6875 2.265625q0 2.015625 -1.59375 3.25q-1.59375 1.234375 -4.296875 1.234375z" fill-rule="nonzero"/><path fill="#000000" fill-opacity="0.0" d="m160.2518 97.23121l7.0437927 5.949318l6.984543 -5.9364014l0 -50.395367l-14.042969 0z" fill-rule="evenodd"/><path stroke="#ffffff" stroke-width="3.0419947506561678" stroke-linejoin="round" stroke-linecap="butt" d="m160.2518 97.23121l7.0437927 5.949318l6.984543 -5.9364014l0 -50.395367l-14.042969 0z" fill-rule="evenodd"/><path fill="#000000" fill-opacity="0.0" d="m162.05186 95.91928l5.234253 5.5980225l5.1902313 -5.585869l0 -47.41961l-10.4353485 0z" fill-rule="evenodd"/><path stroke="#ffffff" stroke-width="3.0419947506561678" stroke-linejoin="round" stroke-linecap="butt" d="m162.05186 95.91928l5.234253 5.5980225l5.1902313 -5.585869l0 -47.41961l-10.4353485 0z" fill-rule="evenodd"/><path fill="#000000" fill-opacity="0.0" d="m163.2907 56.011887l7.9354706 0" fill-rule="evenodd"/><path stroke="#ffffff" stroke-width="3.0419947506561678" stroke-linejoin="round" stroke-linecap="butt" d="m163.2907 56.011887l7.9354706 0" fill-rule="evenodd"/><path fill="#000000" fill-opacity="0.0" d="m163.2907 57.599712l7.9354706 0" fill-rule="evenodd"/><path stroke="#ffffff" stroke-width="3.0419947506561678" stroke-linejoin="round" stroke-linecap="butt" d="m163.2907 57.599712l7.9354706 0" fill-rule="evenodd"/><path fill="#000000" fill-opacity="0.0" d="m124.21549 46.819473l-12.495628 0l0 56.33288l41.09105 0l0 -56.306423z" fill-rule="evenodd"/><path stroke="#ffffff" stroke-width="3.0419947506561678" stroke-linejoin="round" stroke-linecap="butt" d="m124.21549 46.819473l-12.495628 0l0 56.33288l41.09105 0l0 -56.306423z" fill-rule="evenodd"/><path fill="#000000" fill-opacity="0.0" d="m123.807465 47.432583l0 54.73367" fill-rule="evenodd"/><path stroke="#ffffff" stroke-width="3.0419947506561678" stroke-linejoin="round" stroke-linecap="butt" d="m123.807465 47.432583l0 54.73367" fill-rule="evenodd"/><path fill="#000000" fill-opacity="0.0" d="m125.47695 47.432583l0 54.73367" fill-rule="evenodd"/><path stroke="#ffffff" stroke-width="3.0419947506561678" stroke-linejoin="round" stroke-linecap="butt" d="m125.47695 47.432583l0 54.73367" fill-rule="evenodd"/><path fill="#000000" fill-opacity="0.0" d="m124.839294 48.571377l-11.528603 0l0 52.954983l37.91105 0l0 -52.930115z" fill-rule="evenodd"/><path stroke="#ffffff" stroke-width="3.0419947506561678" stroke-linejoin="round" stroke-linecap="butt" d="m124.839294 48.571377l-11.528603 0l0 52.954983l37.91105 0l0 -52.930115z" fill-rule="evenodd"/></g></svg>