<svg version="1.1" viewBox="0.0 0.0 960.0 960.0" fill="none" stroke="none" stroke-linecap="square" stroke-miterlimit="10" xmlns:xlink="http://www.w3.org/1999/xlink" xmlns="http://www.w3.org/2000/svg"><clipPath id="p.0"><path d="m0 0l960.0 0l0 960.0l-960.0 0l0 -960.0z" clip-rule="nonzero"/></clipPath><g clip-path="url(#p.0)"><path fill="#000000" fill-opacity="0.0" d="m0 0l960.0 0l0 960.0l-960.0 0z" fill-rule="evenodd"/><path fill="#ffffff" d="m0 0l960.0 0l0 960.0l-960.0 0z" fill-rule="evenodd"/><path fill="#ffffff" d="m0 480.0c0 -265.09668 214.90332 -480.0 480.0 -480.0c127.303894 0 249.3938 50.571285 339.41125 140.58875c90.017456 90.017456 140.58875 212.10733 140.58875 339.41125c0 265.09668 -214.90332 480.0 -480.0 480.0c-265.09668 0 -480.0 -214.90332 -480.0 -480.0z" fill-rule="evenodd"/><path fill="#434343" d="m673.26263 213.55461c0 -14.219498 11.527222 -25.746689 25.746704 -25.746689l123.594666 0c6.82843 0 13.377258 2.7125854 18.205688 7.541031c4.82843 4.8284454 7.5410156 11.377213 7.5410156 18.205658l0 418.7838c0 14.219482 -11.527161 25.746704 -25.746704 25.746704l-123.594666 0c-14.219482 0 -25.746704 -11.527222 -25.746704 -25.746704z" fill-rule="evenodd"/><path fill="#434343" d="m684.0593 448.28174l153.94812 0l0 250.05078l-76.97406 62.512695l-76.97406 -62.512695z" fill-rule="evenodd"/><path stroke="#434343" stroke-width="20.724409448818896" stroke-linejoin="round" stroke-linecap="butt" d="m684.0593 448.28174l153.94812 0l0 250.05078l-76.97406 62.512695l-76.97406 -62.512695z" fill-rule="evenodd"/><path fill="#434343" d="m165.82567 214.53163c0 -14.7591095 11.964615 -26.72371 26.72371 -26.72371l419.70605 0c7.0875854 0 13.884827 2.8155212 18.896484 7.827194c5.0117188 5.0116577 7.8272095 11.808945 7.8272095 18.896515l0 530.93677c0 14.759094 -11.9646 26.723694 -26.723694 26.723694l-419.70605 0c-14.759094 0 -26.72371 -11.9646 -26.72371 -26.723694z" fill-rule="evenodd"/><path fill="#e06666" d="m719.43005 234.67052l80.19635 0l0 44.472946l-80.19635 0z" fill-rule="evenodd"/><path fill="#b7b7b7" d="m719.43005 279.15738l80.19635 0l0 44.47296l-80.19635 0z" fill-rule="evenodd"/><path fill="#f1c232" d="m719.4299 538.6322l80.236755 0l0 139.20654l-40.11841 34.801636l-40.118347 -34.801636z" fill-rule="evenodd"/><path fill="#f1c232" d="m719.43005 323.64426l80.19635 0l0 218.73923l-80.19635 0z" fill-rule="evenodd"/><path fill="#ffffff" d="m217.04471 247.81403l366.34586 0l0 464.42804l-366.34586 0z" fill-rule="evenodd"/><path fill="#999999" d="m111.64929 348.93936c0 -13.969482 11.324501 -25.294006 25.293991 -25.294006l107.72604 0c6.708374 0 13.142014 2.664917 17.885544 7.4084473c4.7435303 4.743561 7.4084473 11.177185 7.4084473 17.88556l0 0c0 13.969482 -11.324524 25.293976 -25.293991 25.293976l-107.72604 0c-13.96949 0 -25.293991 -11.324493 -25.293991 -25.293976z" fill-rule="evenodd"/><path fill="#999999" d="m111.64929 480.06503c0 -13.969482 11.324501 -25.293976 25.293991 -25.293976l107.72604 0c6.708374 0 13.142014 2.6648865 17.885544 7.4084473c4.7435303 4.7435303 7.4084473 11.177155 7.4084473 17.885529l0 0c0 13.969482 -11.324524 25.294006 -25.293991 25.294006l-107.72604 0c-13.96949 0 -25.293991 -11.324524 -25.293991 -25.294006z" fill-rule="evenodd"/><path fill="#999999" d="m111.64929 611.19073c0 -13.969482 11.324501 -25.294006 25.293991 -25.294006l107.72604 0c6.708374 0 13.142014 2.664917 17.885544 7.4084473c4.7435303 4.7435303 7.4084473 11.177185 7.4084473 17.88556l0 0c0 13.969482 -11.324524 25.294006 -25.293991 25.294006l-107.72604 0c-13.96949 0 -25.293991 -11.324524 -25.293991 -25.294006z" fill-rule="evenodd"/><path fill="#000000" fill-opacity="0.0" d="m311.56433 283.93723l0 392.2562" fill-rule="evenodd"/><path stroke="#e06666" stroke-width="6.139107611548557" stroke-linejoin="round" stroke-linecap="butt" d="m311.56433 283.93723l0 392.2562" fill-rule="evenodd"/><path fill="#000000" fill-opacity="0.0" d="m290.32486 348.93863l257.87057 0" fill-rule="evenodd"/><path stroke="#6fa8dc" stroke-width="6.139107611548557" stroke-linejoin="round" stroke-linecap="butt" d="m290.32486 348.93863l257.87057 0" fill-rule="evenodd"/><path fill="#000000" fill-opacity="0.0" d="m290.32486 436.35577l257.87057 0" fill-rule="evenodd"/><path stroke="#6fa8dc" stroke-width="6.139107611548557" stroke-linejoin="round" stroke-linecap="butt" d="m290.32486 436.35577l257.87057 0" fill-rule="evenodd"/><path fill="#000000" fill-opacity="0.0" d="m290.32486 611.19l257.87057 0" fill-rule="evenodd"/><path stroke="#6fa8dc" stroke-width="6.139107611548557" stroke-linejoin="round" stroke-linecap="butt" d="m290.32486 611.19l257.87057 0" fill-rule="evenodd"/><path fill="#000000" fill-opacity="0.0" d="m290.32486 523.7729l257.87057 0" fill-rule="evenodd"/><path stroke="#6fa8dc" stroke-width="6.139107611548557" stroke-linejoin="round" stroke-linecap="butt" d="m290.32486 523.7729l257.87057 0" fill-rule="evenodd"/><path fill="#333333" d="m1312.6733 130.78867c43.08667 -130.15848 154.35132 -216.90152 279.1256 -217.60904c124.77429 -0.70751953 236.82947 84.7692 281.10864 214.43228l-77.232056 32.58423c-31.180786 -98.55577 -112.55664 -163.92436 -203.41846 -163.40445c-90.86182 0.5199113 -171.67273 66.816536 -202.00623 165.72429z" fill-rule="evenodd"/><path fill="#333333" d="m1316.3665 552.43994c-75.87048 0.6168213 -146.10327 -40.615143 -183.46326 -107.70679c-37.359985 -67.091644 -35.970703 -149.49008 3.6290283 -215.24237c39.599854 -65.75229 111.18152 -104.516235 186.9867 -101.259735l-3.4577637 83.07849c-45.634033 -2.001358 -88.73535 21.562134 -112.58496 61.55017c-23.849487 39.988007 -24.69458 90.10858 -2.2072754 130.91986c22.487183 40.81128 64.76843 65.89172 110.44263 65.5126z" fill-rule="evenodd"/><path fill="#333333" d="m1292.0166 168.69371c0 -27.269928 22.11731 -49.37658 49.40039 -49.37658c13.101807 0 25.666992 5.202156 34.931396 14.462059c9.264282 9.259903 14.468994 21.81903 14.468994 34.91452c0 27.269928 -22.11731 49.37657 -49.40039 49.37657c-27.283081 0 -49.40039 -22.106644 -49.40039 -49.37657z" fill-rule="evenodd"/><path fill="#333333" d="m1277.5535 510.5144c0 -23.231384 18.886108 -42.06418 42.183228 -42.06418c11.187744 0 21.917236 4.4317627 29.828125 12.3203125c7.9108887 7.8885803 12.355225 18.587769 12.355225 29.743866c0 23.231384 -18.886108 42.06421 -42.18335 42.06421c-23.29712 0 -42.183228 -18.832825 -42.183228 -42.06421z" fill-rule="evenodd"/><path fill="#333333" d="m1855.3059 545.5404c76.06311 0.6184082 146.44324 -40.822937 183.72754 -108.18259c37.28418 -67.35968 35.576904 -149.98639 -4.456909 -215.69704c-40.033813 -65.71063 -112.06384 -104.11468 -188.0343 -100.253716l4.0997314 83.26679c45.655518 -2.368988 88.95459 20.933853 113.02649 60.82892c24.072021 39.89505 25.108765 90.07132 2.706421 130.97836c-22.402344 40.907043 -64.69995 66.07373 -110.41223 65.694275z" fill-rule="evenodd"/><path fill="#333333" d="m1888.9008 158.17047c0 -27.269928 -22.11731 -49.37658 -49.40039 -49.37658c-13.101807 0 -25.666992 5.202156 -34.931396 14.462059c-9.264404 9.259903 -14.468994 21.81903 -14.468994 34.91452c0 27.269928 22.11731 49.37657 49.40039 49.37657c27.283081 0 49.40039 -22.106644 49.40039 -49.37657z" fill-rule="evenodd"/><path fill="#333333" d="m1894.119 503.61487c0 -23.231384 -18.886108 -42.06418 -42.18335 -42.06418c-11.187622 0 -21.917114 4.4317627 -29.828003 12.3203125c-7.9108887 7.8885803 -12.355225 18.587769 -12.355225 29.743866c0 23.231384 18.886108 42.064148 42.183228 42.064148c23.297241 0 42.18335 -18.832764 42.18335 -42.064148z" fill-rule="evenodd"/><path fill="#990000" d="m1450.6942 654.31934c-15.063965 -15.063904 -15.063965 -39.487305 0 -54.55121l209.60632 -209.6063c7.2338867 -7.233917 17.045166 -11.297913 27.275513 -11.297913c10.230347 0 20.041626 4.0639954 27.275635 11.297913l0 0c15.063843 15.063904 15.063843 39.487305 0 54.55121l-209.60632 209.6063c-15.063843 15.063904 -39.487305 15.063904 -54.551147 0z" fill-rule="evenodd"/><path fill="#990000" d="m1456.8202 390.16183c15.063843 -15.063873 39.487305 -15.063873 54.551147 0l209.60632 209.6063c7.2338867 7.2339478 11.297852 17.045288 11.297852 27.275635c0 10.230286 -4.063965 20.041626 -11.297852 27.275574l0 0c-15.063965 15.063904 -39.487305 15.063904 -54.551147 0l-209.60632 -209.6063c-15.063965 -15.063904 -15.063965 -39.487305 0 -54.55121z" fill-rule="evenodd"/></g></svg>