<?xml version="1.0" encoding="UTF-8"?>
<svg xmlns="http://www.w3.org/2000/svg" xmlns:xlink="http://www.w3.org/1999/xlink" width="24px" height="24px" viewBox="0 0 24 24" version="1.1">
<g id="surface1">
<path style=" stroke:none;fill-rule:evenodd;fill:rgb(100%,100%,100%);fill-opacity:1;" d="M 0 2.90625 C 0 1.300781 1.300781 0 2.90625 0 L 21.09375 0 C 21.867188 0 22.605469 0.304688 23.148438 0.851562 C 23.695312 1.394531 24 2.132812 24 2.90625 L 24 21.09375 C 24 22.699219 22.699219 24 21.09375 24 L 2.90625 24 C 1.300781 24 0 22.699219 0 21.09375 Z M 0 2.90625 "/>
<path style=" stroke:none;fill-rule:evenodd;fill:rgb(100%,100%,100%);fill-opacity:1;" d="M 0 12 C 0 5.371094 5.371094 0 12 0 C 15.183594 0 18.234375 1.265625 20.484375 3.515625 C 22.734375 5.765625 24 8.816406 24 12 C 24 18.628906 18.628906 24 12 24 C 5.371094 24 0 18.628906 0 12 Z M 0 12 "/>
<path style=" stroke:none;fill-rule:evenodd;fill:rgb(26.274511%,26.274511%,26.274511%);fill-opacity:1;" d="M 17.496094 5.121094 C 17.496094 4.714844 17.824219 4.386719 18.230469 4.386719 L 21.742188 4.386719 C 21.9375 4.386719 22.125 4.464844 22.261719 4.601562 C 22.398438 4.738281 22.476562 4.925781 22.476562 5.121094 L 22.476562 17.03125 C 22.476562 17.433594 22.148438 17.761719 21.742188 17.761719 L 18.230469 17.761719 C 17.824219 17.761719 17.496094 17.433594 17.496094 17.03125 Z M 17.496094 5.121094 "/>
<path style="fill-rule:evenodd;fill:rgb(26.274511%,26.274511%,26.274511%);fill-opacity:1;stroke-width:23.577427;stroke-linecap:butt;stroke-linejoin:round;stroke:rgb(26.274511%,26.274511%,26.274511%);stroke-opacity:1;stroke-miterlimit:10;" d="M 712.1875 471.875 L 887.34375 471.875 L 887.34375 756.25 L 799.6875 827.5 L 712.1875 756.25 Z M 712.1875 471.875 " transform="matrix(0.025,0,0,0.025,0,0)"/>
<path style=" stroke:none;fill-rule:evenodd;fill:rgb(26.274511%,26.274511%,26.274511%);fill-opacity:1;" d="M 3.066406 5.148438 C 3.066406 4.730469 3.40625 4.386719 3.824219 4.386719 L 15.761719 4.386719 C 15.964844 4.386719 16.15625 4.46875 16.300781 4.609375 C 16.441406 4.753906 16.523438 4.945312 16.523438 5.148438 L 16.523438 20.25 C 16.523438 20.667969 16.179688 21.007812 15.761719 21.007812 L 3.824219 21.007812 C 3.40625 21.007812 3.066406 20.667969 3.066406 20.25 Z M 3.066406 5.148438 "/>
<path style=" stroke:none;fill-rule:evenodd;fill:rgb(87.843138%,40.000001%,40.000001%);fill-opacity:1;" d="M 18.808594 5.722656 L 21.089844 5.722656 L 21.089844 6.984375 L 18.808594 6.984375 Z M 18.808594 5.722656 "/>
<path style=" stroke:none;fill-rule:evenodd;fill:rgb(71.764708%,71.764708%,71.764708%);fill-opacity:1;" d="M 18.808594 6.984375 L 21.089844 6.984375 L 21.089844 8.25 L 18.808594 8.25 Z M 18.808594 6.984375 "/>
<path style=" stroke:none;fill-rule:evenodd;fill:rgb(94.509804%,76.078433%,19.607843%);fill-opacity:1;" d="M 18.808594 14.367188 L 21.089844 14.367188 L 21.089844 18.324219 L 19.949219 19.316406 L 18.808594 18.324219 Z M 18.808594 14.367188 "/>
<path style=" stroke:none;fill-rule:evenodd;fill:rgb(94.509804%,76.078433%,19.607843%);fill-opacity:1;" d="M 18.808594 8.25 L 21.089844 8.25 L 21.089844 14.472656 L 18.808594 14.472656 Z M 18.808594 8.25 "/>
<path style=" stroke:none;fill-rule:evenodd;fill:rgb(100%,100%,100%);fill-opacity:1;" d="M 4.523438 6.09375 L 14.941406 6.09375 L 14.941406 19.304688 L 4.523438 19.304688 Z M 4.523438 6.09375 "/>
<path style=" stroke:none;fill-rule:evenodd;fill:rgb(60.000002%,60.000002%,60.000002%);fill-opacity:1;" d="M 1.523438 8.972656 C 1.523438 8.574219 1.847656 8.25 2.242188 8.25 L 5.308594 8.25 C 5.5 8.25 5.679688 8.328125 5.816406 8.460938 C 5.949219 8.597656 6.027344 8.78125 6.027344 8.972656 C 6.027344 9.367188 5.703125 9.691406 5.308594 9.691406 L 2.242188 9.691406 C 1.847656 9.691406 1.523438 9.367188 1.523438 8.972656 Z M 1.523438 8.972656 "/>
<path style=" stroke:none;fill-rule:evenodd;fill:rgb(60.000002%,60.000002%,60.000002%);fill-opacity:1;" d="M 1.523438 12.699219 C 1.523438 12.304688 1.847656 11.980469 2.242188 11.980469 L 5.308594 11.980469 C 5.5 11.980469 5.679688 12.054688 5.816406 12.191406 C 5.949219 12.328125 6.027344 12.507812 6.027344 12.699219 C 6.027344 13.097656 5.703125 13.417969 5.308594 13.417969 L 2.242188 13.417969 C 1.847656 13.417969 1.523438 13.097656 1.523438 12.699219 Z M 1.523438 12.699219 "/>
<path style=" stroke:none;fill-rule:evenodd;fill:rgb(60.000002%,60.000002%,60.000002%);fill-opacity:1;" d="M 1.523438 16.429688 C 1.523438 16.03125 1.847656 15.710938 2.242188 15.710938 L 5.308594 15.710938 C 5.5 15.710938 5.679688 15.785156 5.816406 15.921875 C 5.949219 16.054688 6.027344 16.238281 6.027344 16.429688 C 6.027344 16.828125 5.703125 17.148438 5.308594 17.148438 L 2.242188 17.148438 C 1.847656 17.148438 1.523438 16.828125 1.523438 16.429688 Z M 1.523438 16.429688 "/>
<path style="fill:none;stroke-width:6.984252;stroke-linecap:butt;stroke-linejoin:round;stroke:rgb(87.843138%,40.000001%,40.000001%);stroke-opacity:1;stroke-miterlimit:10;" d="M 288.4375 284.84375 L 288.4375 731.09375 " transform="matrix(0.025,0,0,0.025,0,0)"/>
<path style="fill:none;stroke-width:6.984252;stroke-linecap:butt;stroke-linejoin:round;stroke:rgb(43.529412%,65.882355%,86.274511%);stroke-opacity:1;stroke-miterlimit:10;" d="M 264.21875 358.90625 L 557.65625 358.90625 " transform="matrix(0.025,0,0,0.025,0,0)"/>
<path style="fill:none;stroke-width:6.984252;stroke-linecap:butt;stroke-linejoin:round;stroke:rgb(43.529412%,65.882355%,86.274511%);stroke-opacity:1;stroke-miterlimit:10;" d="M 264.21875 458.28125 L 557.65625 458.28125 " transform="matrix(0.025,0,0,0.025,0,0)"/>
<path style="fill:none;stroke-width:6.984252;stroke-linecap:butt;stroke-linejoin:round;stroke:rgb(43.529412%,65.882355%,86.274511%);stroke-opacity:1;stroke-miterlimit:10;" d="M 264.21875 657.1875 L 557.65625 657.1875 " transform="matrix(0.025,0,0,0.025,0,0)"/>
<path style="fill:none;stroke-width:6.984252;stroke-linecap:butt;stroke-linejoin:round;stroke:rgb(43.529412%,65.882355%,86.274511%);stroke-opacity:1;stroke-miterlimit:10;" d="M 264.21875 557.65625 L 557.65625 557.65625 " transform="matrix(0.025,0,0,0.025,0,0)"/>
</g>
</svg>
