<?xml version="1.0" encoding="UTF-8"?>
<svg xmlns="http://www.w3.org/2000/svg" xmlns:xlink="http://www.w3.org/1999/xlink" width="24px" height="24px" viewBox="0 0 24 24" version="1.1">
<g id="surface1">
<path style=" stroke:none;fill-rule:evenodd;fill:rgb(81.176472%,88.627452%,95.294118%);fill-opacity:1;" d="M 6.054688 15.40625 L 10.839844 15.40625 C 10.3125 15.40625 9.882812 16.667969 9.882812 18.222656 C 9.882812 19.777344 10.3125 21.039062 10.839844 21.039062 L 6.054688 21.039062 C 5.527344 21.039062 5.097656 19.777344 5.097656 18.222656 C 5.097656 16.667969 5.527344 15.40625 6.054688 15.40625 Z M 6.054688 15.40625 "/>
<path style=" stroke:none;fill-rule:evenodd;fill:rgb(23.529412%,47.058824%,84.705883%);fill-opacity:1;" d="M 15.390625 15.40625 L 20.449219 15.40625 C 19.890625 15.40625 19.4375 16.667969 19.4375 18.222656 C 19.4375 19.777344 19.890625 21.039062 20.449219 21.039062 L 15.390625 21.039062 C 14.832031 21.039062 14.378906 19.777344 14.378906 18.222656 C 14.378906 16.667969 14.832031 15.40625 15.390625 15.40625 Z M 15.390625 15.40625 "/>
<path style=" stroke:none;fill-rule:evenodd;fill:rgb(23.529412%,47.058824%,84.705883%);fill-opacity:1;" d="M 10.664062 15.40625 L 15.476562 15.40625 C 14.945312 15.40625 14.511719 16.667969 14.511719 18.222656 C 14.511719 19.777344 14.945312 21.039062 15.476562 21.039062 L 10.664062 21.039062 C 10.128906 21.039062 9.699219 19.777344 9.699219 18.222656 C 9.699219 16.667969 10.128906 15.40625 10.664062 15.40625 Z M 10.664062 15.40625 "/>
<path style=" stroke:none;fill-rule:evenodd;fill:rgb(23.529412%,47.058824%,84.705883%);fill-opacity:1;" d="M 4.214844 15.40625 L 13.679688 15.40625 C 12.632812 15.40625 11.785156 16.667969 11.785156 18.222656 C 11.785156 19.777344 12.632812 21.039062 13.679688 21.039062 L 4.214844 21.039062 C 3.171875 21.039062 2.324219 19.777344 2.324219 18.222656 C 2.324219 16.667969 3.171875 15.40625 4.214844 15.40625 Z M 4.214844 15.40625 "/>
<path style=" stroke:none;fill-rule:evenodd;fill:rgb(20%,20%,20%);fill-opacity:1;" d="M 21.632812 14.28125 C 21.632812 13.660156 22.136719 13.15625 22.757812 13.15625 C 23.054688 13.15625 23.34375 13.273438 23.554688 13.484375 C 23.765625 13.695312 23.882812 13.984375 23.882812 14.28125 C 23.882812 14.902344 23.378906 15.40625 22.757812 15.40625 C 22.136719 15.40625 21.632812 14.902344 21.632812 14.28125 Z M 21.632812 14.28125 "/>
<path style=" stroke:none;fill-rule:evenodd;fill:rgb(20%,20%,20%);fill-opacity:1;" d="M 4.546875 23.289062 C 2.074219 23.289062 0.0703125 21.023438 0.0703125 18.222656 C 0.0703125 15.425781 2.074219 13.15625 4.546875 13.15625 L 4.546875 15.394531 C 3.3125 15.394531 2.308594 16.660156 2.308594 18.222656 C 2.308594 19.785156 3.3125 21.050781 4.546875 21.050781 Z M 4.546875 23.289062 "/>
<path style=" stroke:none;fill-rule:evenodd;fill:rgb(20%,20%,20%);fill-opacity:1;" d="M 4.519531 13.15625 L 22.796875 13.15625 L 22.796875 15.40625 L 4.519531 15.40625 Z M 4.519531 13.15625 "/>
<path style=" stroke:none;fill-rule:evenodd;fill:rgb(20%,20%,20%);fill-opacity:1;" d="M 21.628906 22.164062 C 21.628906 21.542969 22.136719 21.039062 22.757812 21.039062 C 23.054688 21.039062 23.34375 21.15625 23.554688 21.367188 C 23.765625 21.578125 23.882812 21.867188 23.882812 22.164062 C 23.882812 22.785156 23.378906 23.289062 22.757812 23.289062 C 22.136719 23.289062 21.628906 22.785156 21.628906 22.164062 Z M 21.628906 22.164062 "/>
<path style=" stroke:none;fill-rule:evenodd;fill:rgb(20%,20%,20%);fill-opacity:1;" d="M 4.519531 21.039062 L 22.796875 21.039062 L 22.796875 23.289062 L 4.519531 23.289062 Z M 4.519531 21.039062 "/>
<path style=" stroke:none;fill-rule:evenodd;fill:rgb(20%,20%,20%);fill-opacity:1;" d="M 22.621094 23.074219 C 20.636719 22.433594 19.269531 20.496094 19.246094 18.285156 C 19.222656 16.074219 20.542969 14.101562 22.511719 13.410156 L 23.101562 15.320312 C 21.976562 15.753906 21.230469 16.9375 21.246094 18.261719 C 21.257812 19.585938 22.035156 20.75 23.167969 21.148438 Z M 22.621094 23.074219 "/>
<path style=" stroke:none;fill-rule:evenodd;fill:rgb(81.176472%,88.627452%,95.294118%);fill-opacity:1;" d="M 17.984375 8.585938 L 13.203125 8.585938 C 13.730469 8.585938 14.160156 7.324219 14.160156 5.769531 C 14.160156 4.214844 13.730469 2.953125 13.203125 2.953125 L 17.984375 2.953125 C 18.515625 2.953125 18.941406 4.214844 18.941406 5.769531 C 18.941406 7.324219 18.515625 8.585938 17.984375 8.585938 Z M 17.984375 8.585938 "/>
<path style=" stroke:none;fill-rule:evenodd;fill:rgb(60.000002%,0%,0%);fill-opacity:1;" d="M 8.851562 8.585938 L 3.585938 8.585938 C 4.167969 8.585938 4.636719 7.324219 4.636719 5.769531 C 4.636719 4.214844 4.167969 2.953125 3.585938 2.953125 L 8.851562 2.953125 C 9.429688 2.953125 9.902344 4.214844 9.902344 5.769531 C 9.902344 7.324219 9.429688 8.585938 8.851562 8.585938 Z M 8.851562 8.585938 "/>
<path style=" stroke:none;fill-rule:evenodd;fill:rgb(60.000002%,0%,0%);fill-opacity:1;" d="M 13.433594 8.585938 L 8.59375 8.585938 C 9.128906 8.585938 9.5625 7.324219 9.5625 5.769531 C 9.5625 4.214844 9.128906 2.953125 8.59375 2.953125 L 13.433594 2.953125 C 13.96875 2.953125 14.402344 4.214844 14.402344 5.769531 C 14.402344 7.324219 13.96875 8.585938 13.433594 8.585938 Z M 13.433594 8.585938 "/>
<path style=" stroke:none;fill-rule:evenodd;fill:rgb(60.000002%,0%,0%);fill-opacity:1;" d="M 19.917969 8.585938 L 10.398438 8.585938 C 11.453125 8.585938 12.304688 7.324219 12.304688 5.769531 C 12.304688 4.214844 11.453125 2.953125 10.398438 2.953125 L 19.917969 2.953125 C 20.972656 2.953125 21.824219 4.214844 21.824219 5.769531 C 21.824219 7.324219 20.972656 8.585938 19.917969 8.585938 Z M 19.917969 8.585938 "/>
<path style=" stroke:none;fill-rule:evenodd;fill:rgb(20%,20%,20%);fill-opacity:1;" d="M 2.410156 9.710938 C 2.410156 10.332031 1.90625 10.835938 1.285156 10.835938 C 0.984375 10.835938 0.699219 10.71875 0.488281 10.507812 C 0.277344 10.296875 0.160156 10.011719 0.160156 9.710938 C 0.160156 9.089844 0.664062 8.585938 1.285156 8.585938 C 1.90625 8.585938 2.410156 9.089844 2.410156 9.710938 Z M 2.410156 9.710938 "/>
<path style=" stroke:none;fill-rule:evenodd;fill:rgb(20%,20%,20%);fill-opacity:1;" d="M 19.492188 0.703125 C 21.964844 0.703125 23.96875 2.972656 23.96875 5.769531 C 23.96875 8.570312 21.964844 10.835938 19.492188 10.835938 L 19.492188 8.597656 C 20.730469 8.597656 21.730469 7.332031 21.730469 5.769531 C 21.730469 4.207031 20.730469 2.941406 19.492188 2.941406 Z M 19.492188 0.703125 "/>
<path style=" stroke:none;fill-rule:evenodd;fill:rgb(20%,20%,20%);fill-opacity:1;" d="M 19.523438 10.835938 L 1.246094 10.835938 L 1.246094 8.585938 L 19.523438 8.585938 Z M 19.523438 10.835938 "/>
<path style=" stroke:none;fill-rule:evenodd;fill:rgb(20%,20%,20%);fill-opacity:1;" d="M 2.410156 1.828125 C 2.410156 2.449219 1.90625 2.953125 1.285156 2.953125 C 0.984375 2.953125 0.699219 2.835938 0.488281 2.625 C 0.277344 2.414062 0.160156 2.128906 0.160156 1.828125 C 0.160156 1.207031 0.664062 0.703125 1.285156 0.703125 C 1.90625 0.703125 2.410156 1.207031 2.410156 1.828125 Z M 2.410156 1.828125 "/>
<path style=" stroke:none;fill-rule:evenodd;fill:rgb(20%,20%,20%);fill-opacity:1;" d="M 19.523438 2.953125 L 1.246094 2.953125 L 1.246094 0.703125 L 19.523438 0.703125 Z M 19.523438 2.953125 "/>
<path style=" stroke:none;fill-rule:evenodd;fill:rgb(20%,20%,20%);fill-opacity:1;" d="M 1.421875 0.917969 C 3.40625 1.558594 4.769531 3.5 4.796875 5.710938 C 4.820312 7.917969 3.5 9.890625 1.53125 10.582031 L 0.941406 8.671875 C 2.0625 8.242188 2.8125 7.054688 2.796875 5.730469 C 2.78125 4.40625 2.007812 3.242188 0.875 2.84375 Z M 1.421875 0.917969 "/>
</g>
</svg>
