<?xml version="1.0" encoding="UTF-8"?>
<svg xmlns="http://www.w3.org/2000/svg" xmlns:xlink="http://www.w3.org/1999/xlink" width="24px" height="24px" viewBox="0 0 24 24" version="1.1">
<g id="surface1">
<path style=" stroke:none;fill-rule:evenodd;fill:rgb(26.274511%,26.274511%,26.274511%);fill-opacity:1;" d="M 18.296875 3.316406 C 18.296875 2.855469 18.671875 2.480469 19.132812 2.480469 L 23.160156 2.480469 C 23.382812 2.480469 23.597656 2.566406 23.753906 2.726562 C 23.910156 2.882812 24 3.097656 24 3.316406 L 24 16.960938 C 24 17.425781 23.625 17.800781 23.160156 17.800781 L 19.132812 17.800781 C 18.671875 17.800781 18.296875 17.425781 18.296875 16.960938 Z M 18.296875 3.316406 "/>
<path style="fill-rule:evenodd;fill:rgb(26.274511%,26.274511%,26.274511%);fill-opacity:1;stroke-width:27.007874;stroke-linecap:butt;stroke-linejoin:round;stroke:rgb(26.274511%,26.274511%,26.274511%);stroke-opacity:1;stroke-miterlimit:10;" d="M 745.9375 438.59375 L 946.5625 438.59375 L 946.5625 764.375 L 846.25 845.9375 L 745.9375 764.375 Z M 745.9375 438.59375 " transform="matrix(0.025,0,0,0.025,0,0)"/>
<path style=" stroke:none;fill-rule:evenodd;fill:rgb(26.274511%,26.274511%,26.274511%);fill-opacity:1;" d="M 1.765625 3.351562 C 1.765625 2.871094 2.15625 2.480469 2.636719 2.480469 L 16.308594 2.480469 C 16.539062 2.480469 16.761719 2.570312 16.925781 2.734375 C 17.085938 2.898438 17.179688 3.121094 17.179688 3.351562 L 17.179688 20.648438 C 17.179688 21.128906 16.789062 21.515625 16.308594 21.515625 L 2.636719 21.515625 C 2.15625 21.515625 1.765625 21.128906 1.765625 20.648438 Z M 1.765625 3.351562 "/>
<path style=" stroke:none;fill-rule:evenodd;fill:rgb(87.843138%,40.000001%,40.000001%);fill-opacity:1;" d="M 19.800781 4.007812 L 22.414062 4.007812 L 22.414062 5.453125 L 19.800781 5.453125 Z M 19.800781 4.007812 "/>
<path style=" stroke:none;fill-rule:evenodd;fill:rgb(71.764708%,71.764708%,71.764708%);fill-opacity:1;" d="M 19.800781 5.457031 L 22.414062 5.457031 L 22.414062 6.902344 L 19.800781 6.902344 Z M 19.800781 5.457031 "/>
<path style=" stroke:none;fill-rule:evenodd;fill:rgb(94.509804%,76.078433%,19.607843%);fill-opacity:1;" d="M 19.800781 13.910156 L 22.414062 13.910156 L 22.414062 18.445312 L 21.105469 19.578125 L 19.800781 18.445312 Z M 19.800781 13.910156 "/>
<path style=" stroke:none;fill-rule:evenodd;fill:rgb(94.509804%,76.078433%,19.607843%);fill-opacity:1;" d="M 19.800781 6.90625 L 22.414062 6.90625 L 22.414062 14.03125 L 19.800781 14.03125 Z M 19.800781 6.90625 "/>
<path style=" stroke:none;fill-rule:evenodd;fill:rgb(100%,100%,100%);fill-opacity:1;" d="M 3.433594 4.433594 L 15.367188 4.433594 L 15.367188 19.5625 L 3.433594 19.5625 Z M 3.433594 4.433594 "/>
<path style=" stroke:none;fill-rule:evenodd;fill:rgb(60.000002%,60.000002%,60.000002%);fill-opacity:1;" d="M 0 7.730469 C 0 7.273438 0.367188 6.90625 0.824219 6.90625 L 4.332031 6.90625 C 4.550781 6.90625 4.761719 6.992188 4.917969 7.144531 C 5.070312 7.300781 5.15625 7.511719 5.15625 7.730469 C 5.15625 8.183594 4.789062 8.554688 4.332031 8.554688 L 0.824219 8.554688 C 0.367188 8.554688 0 8.183594 0 7.730469 Z M 0 7.730469 "/>
<path style=" stroke:none;fill-rule:evenodd;fill:rgb(60.000002%,60.000002%,60.000002%);fill-opacity:1;" d="M 0 12 C 0 11.546875 0.367188 11.175781 0.824219 11.175781 L 4.332031 11.175781 C 4.550781 11.175781 4.761719 11.261719 4.917969 11.417969 C 5.070312 11.574219 5.15625 11.78125 5.15625 12 C 5.15625 12.457031 4.789062 12.824219 4.332031 12.824219 L 0.824219 12.824219 C 0.367188 12.824219 0 12.457031 0 12 Z M 0 12 "/>
<path style=" stroke:none;fill-rule:evenodd;fill:rgb(60.000002%,60.000002%,60.000002%);fill-opacity:1;" d="M 0 16.273438 C 0 15.816406 0.367188 15.449219 0.824219 15.449219 L 4.332031 15.449219 C 4.550781 15.449219 4.761719 15.535156 4.917969 15.691406 C 5.070312 15.84375 5.15625 16.054688 5.15625 16.273438 C 5.15625 16.726562 4.789062 17.097656 4.332031 17.097656 L 0.824219 17.097656 C 0.367188 17.097656 0 16.726562 0 16.273438 Z M 0 16.273438 "/>
<path style="fill:none;stroke-width:8;stroke-linecap:butt;stroke-linejoin:round;stroke:rgb(87.843138%,40.000001%,40.000001%);stroke-opacity:1;stroke-miterlimit:10;" d="M 260.46875 224.375 L 260.46875 735.625 " transform="matrix(0.025,0,0,0.025,0,0)"/>
<path style="fill:none;stroke-width:8;stroke-linecap:butt;stroke-linejoin:round;stroke:rgb(43.529412%,65.882355%,86.274511%);stroke-opacity:1;stroke-miterlimit:10;" d="M 232.8125 309.21875 L 568.90625 309.21875 " transform="matrix(0.025,0,0,0.025,0,0)"/>
<path style="fill:none;stroke-width:8;stroke-linecap:butt;stroke-linejoin:round;stroke:rgb(43.529412%,65.882355%,86.274511%);stroke-opacity:1;stroke-miterlimit:10;" d="M 232.8125 423.125 L 568.90625 423.125 " transform="matrix(0.025,0,0,0.025,0,0)"/>
<path style="fill:none;stroke-width:8;stroke-linecap:butt;stroke-linejoin:round;stroke:rgb(43.529412%,65.882355%,86.274511%);stroke-opacity:1;stroke-miterlimit:10;" d="M 232.8125 650.9375 L 568.90625 650.9375 " transform="matrix(0.025,0,0,0.025,0,0)"/>
<path style="fill:none;stroke-width:8;stroke-linecap:butt;stroke-linejoin:round;stroke:rgb(43.529412%,65.882355%,86.274511%);stroke-opacity:1;stroke-miterlimit:10;" d="M 232.8125 537.03125 L 568.90625 537.03125 " transform="matrix(0.025,0,0,0.025,0,0)"/>
</g>
</svg>
