<?xml version="1.0" encoding="UTF-8"?>
<svg xmlns="http://www.w3.org/2000/svg" xmlns:xlink="http://www.w3.org/1999/xlink" width="24px" height="24px" viewBox="0 0 24 24" version="1.1">
<g id="surface2">
<path style=" stroke:none;fill-rule:evenodd;fill:rgb(26.274511%,26.274511%,26.274511%);fill-opacity:1;" d="M -0.0859375 3.027344 C -0.0859375 1.371094 1.257812 0.0273438 2.914062 0.0273438 L 21.097656 0.0273438 C 21.890625 0.0273438 22.65625 0.34375 23.214844 0.90625 C 23.777344 1.46875 24.09375 2.230469 24.09375 3.027344 L 24.09375 21.03125 C 24.09375 22.6875 22.753906 24.027344 21.097656 24.027344 L 2.914062 24.027344 C 1.257812 24.027344 -0.0859375 22.6875 -0.0859375 21.03125 Z M -0.0859375 3.027344 "/>
<path style=" stroke:none;fill-rule:evenodd;fill:rgb(41.568628%,65.882355%,30.980393%);fill-opacity:1;" d="M 2.28125 3.058594 C 2.28125 2.675781 2.589844 2.367188 2.972656 2.367188 L 20.996094 2.367188 C 21.179688 2.367188 21.355469 2.4375 21.484375 2.570312 C 21.617188 2.699219 21.6875 2.875 21.6875 3.058594 L 21.6875 20.941406 C 21.6875 21.320312 21.378906 21.628906 20.996094 21.628906 L 2.972656 21.628906 C 2.589844 21.628906 2.28125 21.320312 2.28125 20.941406 Z M 2.28125 3.058594 "/>
<path style=" stroke:none;fill-rule:evenodd;fill:rgb(100%,100%,100%);fill-opacity:1;" d="M 4.289062 11.273438 C 4.757812 10.808594 5.519531 10.808594 5.984375 11.273438 L 10.488281 15.777344 C 10.714844 16.003906 10.839844 16.308594 10.839844 16.625 C 10.839844 16.945312 10.714844 17.25 10.488281 17.472656 C 10.019531 17.941406 9.261719 17.941406 8.792969 17.472656 L 4.289062 12.96875 C 3.824219 12.503906 3.824219 11.742188 4.289062 11.273438 Z M 4.289062 11.273438 "/>
<path style=" stroke:none;fill-rule:evenodd;fill:rgb(100%,100%,100%);fill-opacity:1;" d="M 8.761719 17.472656 C 8.292969 17.003906 8.292969 16.246094 8.761719 15.777344 L 18.015625 6.527344 C 18.238281 6.300781 18.542969 6.175781 18.863281 6.175781 C 19.179688 6.175781 19.484375 6.300781 19.710938 6.527344 C 20.175781 6.996094 20.175781 7.753906 19.710938 8.222656 L 10.457031 17.472656 C 9.988281 17.941406 9.230469 17.941406 8.761719 17.472656 Z M 8.761719 17.472656 "/>
</g>
</svg>
