<svg version="1.1" viewBox="0.0 0.0 377.9527559055118 755.9055118110236" fill="none" stroke="none" stroke-linecap="square" stroke-miterlimit="10" xmlns:xlink="http://www.w3.org/1999/xlink" xmlns="http://www.w3.org/2000/svg"><clipPath id="p.0"><path d="m0 0l377.95276 0l0 755.9055l-377.95276 0l0 -755.9055z" clip-rule="nonzero"/></clipPath><g clip-path="url(#p.0)"><path fill="#000000" fill-opacity="0.0" d="m0 0l377.95276 0l0 755.9055l-377.95276 0z" fill-rule="evenodd"/><path fill="#000000" fill-opacity="0.0" d="m10.76378 70.17179c0 -32.81014 26.597874 -59.408012 59.408012 -59.408012l237.62494 0c15.755981 0 30.866638 6.25904 42.007812 17.400204c11.141144 11.141161 17.400177 26.251822 17.400177 42.007805l0 615.57764c0 32.81018 -26.59787 59.40802 -59.40799 59.40802l-237.62494 0c-32.81014 0 -59.408012 -26.59784 -59.408012 -59.40802z" fill-rule="evenodd"/><path stroke="#ffffff" stroke-width="16.0" stroke-linejoin="round" stroke-linecap="butt" d="m10.76378 70.17179c0 -32.81014 26.597874 -59.408012 59.408012 -59.408012l237.62494 0c15.755981 0 30.866638 6.25904 42.007812 17.400204c11.141144 11.141161 17.400177 26.251822 17.400177 42.007805l0 615.57764c0 32.81018 -26.59787 59.40802 -59.40799 59.40802l-237.62494 0c-32.81014 0 -59.408012 -26.59784 -59.408012 -59.40802z" fill-rule="evenodd"/><path fill="#ffffff" d="m174.93701 74.4462c0 -7.7580795 6.289154 -14.047249 14.047241 -14.047249c3.7255554 0 7.298538 1.4799728 9.932907 4.1143417c2.634369 2.634369 4.114334 6.207344 4.114334 9.932907c0 7.758072 -6.2891693 14.047241 -14.047241 14.047241c-7.758087 0 -14.047241 -6.2891693 -14.047241 -14.047241z" fill-rule="evenodd"/><path fill="#ffffff" d="m128.59055 681.44354c0 -7.7580566 6.2891693 -14.047241 14.047256 -14.047241l92.6929 0c3.7255707 0 7.298538 1.4799805 9.932907 4.11438c2.634369 2.6343384 4.1143494 6.2073364 4.1143494 9.932861l0 0c0 7.7581177 -6.2891693 14.047241 -14.047256 14.047241l-92.6929 0c-7.758087 0 -14.047256 -6.2891235 -14.047256 -14.047241z" fill-rule="evenodd"/></g></svg>