<?xml version="1.0" encoding="UTF-8"?>
<svg xmlns="http://www.w3.org/2000/svg" xmlns:xlink="http://www.w3.org/1999/xlink" width="24px" height="24px" viewBox="0 0 24 24" version="1.1">
<g id="surface2">
<path style=" stroke:none;fill-rule:evenodd;fill:rgb(26.274511%,26.274511%,26.274511%);fill-opacity:1;" d="M 0.171875 12 C 0.171875 5.46875 5.46875 0.171875 12 0.171875 C 15.136719 0.171875 18.144531 1.417969 20.363281 3.636719 C 22.582031 5.855469 23.828125 8.863281 23.828125 12 C 23.828125 18.53125 18.53125 23.828125 12 23.828125 C 5.46875 23.828125 0.171875 18.53125 0.171875 12 Z M 0.171875 12 "/>
<path style=" stroke:none;fill-rule:evenodd;fill:rgb(80.000001%,0%,0%);fill-opacity:1;" d="M 2.339844 12.015625 C 2.339844 6.675781 6.667969 2.351562 12.003906 2.351562 C 14.570312 2.351562 17.027344 3.367188 18.839844 5.179688 C 20.652344 6.992188 21.671875 9.453125 21.671875 12.015625 C 21.671875 17.355469 17.34375 21.679688 12.003906 21.679688 C 6.667969 21.679688 2.339844 17.355469 2.339844 12.015625 Z M 2.339844 12.015625 "/>
<path style=" stroke:none;fill-rule:evenodd;fill:rgb(100%,100%,100%);fill-opacity:1;" d="M 7.550781 7.554688 C 8.035156 7.070312 8.824219 7.070312 9.308594 7.554688 L 16.457031 14.703125 C 16.691406 14.9375 16.820312 15.253906 16.820312 15.585938 C 16.820312 15.914062 16.691406 16.230469 16.457031 16.464844 C 15.972656 16.949219 15.183594 16.949219 14.699219 16.464844 L 7.550781 9.316406 C 7.066406 8.828125 7.066406 8.042969 7.550781 7.554688 Z M 7.550781 7.554688 "/>
<path style=" stroke:none;fill-rule:evenodd;fill:rgb(100%,100%,100%);fill-opacity:1;" d="M 7.542969 16.445312 C 7.058594 15.957031 7.058594 15.171875 7.542969 14.6875 L 14.691406 7.539062 C 14.925781 7.304688 15.242188 7.171875 15.570312 7.171875 C 15.902344 7.171875 16.21875 7.304688 16.449219 7.539062 C 16.9375 8.023438 16.9375 8.808594 16.449219 9.296875 L 9.300781 16.445312 C 8.816406 16.929688 8.03125 16.929688 7.542969 16.445312 Z M 7.542969 16.445312 "/>
</g>
</svg>
