<?xml version="1.0" encoding="UTF-8"?>
<!DOCTYPE svg PUBLIC "-//W3C//DTD SVG 1.1//EN" "http://www.w3.org/Graphics/SVG/1.1/DTD/svg11.dtd">
<svg xmlns="http://www.w3.org/2000/svg" version="1.1" width="512px" height="512px" style="shape-rendering:geometricPrecision; text-rendering:geometricPrecision; image-rendering:optimizeQuality; fill-rule:evenodd; clip-rule:evenodd" xmlns:xlink="http://www.w3.org/1999/xlink">
<g><path style="opacity:1" fill="#2b8951" d="M -0.5,-0.5 C 170.167,-0.5 340.833,-0.5 511.5,-0.5C 511.5,170.167 511.5,340.833 511.5,511.5C 340.833,511.5 170.167,511.5 -0.5,511.5C -0.5,340.833 -0.5,170.167 -0.5,-0.5 Z"/></g>
<g><path style="opacity:1" fill="#f7f8f7" d="M 124.5,130.5 C 181.834,130.333 239.168,130.5 296.5,131C 298.587,131.792 300.421,132.959 302,134.5C 303.661,214.419 303.994,294.419 303,374.5C 301.749,377.381 299.583,379.214 296.5,380C 239.167,380.667 181.833,380.667 124.5,380C 122.376,378.878 120.543,377.378 119,375.5C 117.339,296.248 117.006,216.915 118,137.5C 119.694,134.642 121.861,132.309 124.5,130.5 Z"/></g>
<g><path style="opacity:1" fill="#f7f8f7" d="M 329.5,130.5 C 348.503,130.333 367.503,130.5 386.5,131C 389.333,132.5 391.5,134.667 393,137.5C 393.667,206.833 393.667,276.167 393,345.5C 392.64,347.608 391.973,349.608 391,351.5C 382.5,360 374,368.5 365.5,377C 360.433,380.265 355.433,380.265 350.5,377C 342,368.5 333.5,360 325,351.5C 324.138,349.913 323.471,348.246 323,346.5C 322.333,276.5 322.333,206.5 323,136.5C 324.494,133.686 326.66,131.686 329.5,130.5 Z"/></g>
<g><path style="opacity:1" fill="#2b8951" d="M 137.5,150.5 C 147.833,150.5 158.167,150.5 168.5,150.5C 168.5,220.5 168.5,290.5 168.5,360.5C 158.167,360.5 147.833,360.5 137.5,360.5C 137.5,290.5 137.5,220.5 137.5,150.5 Z"/></g>
<g><path style="opacity:1" fill="#89bc9f" d="M 137.5,150.5 C 147.987,149.506 158.654,149.172 169.5,149.5C 169.5,220.167 169.5,290.833 169.5,361.5C 158.654,361.828 147.987,361.494 137.5,360.5C 147.833,360.5 158.167,360.5 168.5,360.5C 168.5,290.5 168.5,220.5 168.5,150.5C 158.167,150.5 147.833,150.5 137.5,150.5 Z"/></g>
<g><path style="opacity:1" fill="#2c8951" d="M 188.5,150.5 C 220.5,150.5 252.5,150.5 284.5,150.5C 284.5,220.5 284.5,290.5 284.5,360.5C 252.5,360.5 220.5,360.5 188.5,360.5C 188.5,290.5 188.5,220.5 188.5,150.5 Z"/></g>
<g><path style="opacity:1" fill="#2b8951" d="M 342.5,150.5 C 352.833,150.5 363.167,150.5 373.5,150.5C 373.5,156.5 373.5,162.5 373.5,168.5C 363.167,168.5 352.833,168.5 342.5,168.5C 342.5,162.5 342.5,156.5 342.5,150.5 Z"/></g>
<g><path style="opacity:1" fill="#88ba9f" d="M 342.5,150.5 C 342.5,156.5 342.5,162.5 342.5,168.5C 352.833,168.5 363.167,168.5 373.5,168.5C 363.013,169.494 352.346,169.828 341.5,169.5C 341.177,162.978 341.51,156.645 342.5,150.5 Z"/></g>
<g><path style="opacity:1" fill="#308b54" d="M 341.5,188.5 C 352.167,188.5 362.833,188.5 373.5,188.5C 374.267,239.165 374.433,289.832 374,340.5C 369.161,346.505 363.661,351.838 357.5,356.5C 352.181,351.682 347.015,346.682 342,341.5C 341.5,290.501 341.333,239.501 341.5,188.5 Z"/></g>
</svg>
