<svg version="1.1" viewBox="0.0 0.0 960.0 960.0" fill="none" stroke="none" stroke-linecap="square" stroke-miterlimit="10" xmlns:xlink="http://www.w3.org/1999/xlink" xmlns="http://www.w3.org/2000/svg"><clipPath id="p.0"><path d="m0 0l960.0 0l0 960.0l-960.0 0l0 -960.0z" clip-rule="nonzero"/></clipPath><g clip-path="url(#p.0)"><path fill="#000000" fill-opacity="0.0" d="m0 0l960.0 0l0 960.0l-960.0 0z" fill-rule="evenodd"/><path fill="#000000" fill-opacity="0.0" d="m1680.6487 741.1715l91.45276 77.242615l90.68335 -77.07489l0 -654.3051l-182.32593 0z" fill-rule="evenodd"/><path stroke="#ffffff" stroke-width="39.511811023622045" stroke-linejoin="round" stroke-linecap="butt" d="m1680.6487 741.1715l91.45276 77.242615l90.68335 -77.07489l0 -654.3051l-182.32593 0z" fill-rule="evenodd"/><path fill="#000000" fill-opacity="0.0" d="m1704.0198 724.13824l67.95862 72.68158l67.387085 -72.5238l0 -615.6696l-135.48682 0z" fill-rule="evenodd"/><path stroke="#ffffff" stroke-width="39.511811023622045" stroke-linejoin="round" stroke-linecap="butt" d="m1704.0198 724.13824l67.95862 72.68158l67.387085 -72.5238l0 -615.6696l-135.48682 0z" fill-rule="evenodd"/><path fill="#000000" fill-opacity="0.0" d="m1720.104 206.00296l103.02991 0" fill-rule="evenodd"/><path stroke="#ffffff" stroke-width="39.511811023622045" stroke-linejoin="round" stroke-linecap="butt" d="m1720.104 206.00296l103.02991 0" fill-rule="evenodd"/><path fill="#000000" fill-opacity="0.0" d="m1720.104 226.61844l103.02991 0" fill-rule="evenodd"/><path stroke="#ffffff" stroke-width="39.511811023622045" stroke-linejoin="round" stroke-linecap="butt" d="m1720.104 226.61844l103.02991 0" fill-rule="evenodd"/><path fill="#000000" fill-opacity="0.0" d="m1212.7737 86.65385l-162.23633 0l0 731.3945l533.5032 0l0 -731.051z" fill-rule="evenodd"/><path stroke="#ffffff" stroke-width="39.511811023622045" stroke-linejoin="round" stroke-linecap="butt" d="m1212.7737 86.65385l-162.23633 0l0 731.3945l533.5032 0l0 -731.051z" fill-rule="evenodd"/><path fill="#000000" fill-opacity="0.0" d="m1207.4761 94.61414l0 710.6312" fill-rule="evenodd"/><path stroke="#ffffff" stroke-width="39.511811023622045" stroke-linejoin="round" stroke-linecap="butt" d="m1207.4761 94.61414l0 710.6312" fill-rule="evenodd"/><path fill="#000000" fill-opacity="0.0" d="m1229.1517 94.61414l0 710.6312" fill-rule="evenodd"/><path stroke="#ffffff" stroke-width="39.511811023622045" stroke-linejoin="round" stroke-linecap="butt" d="m1229.1517 94.61414l0 710.6312" fill-rule="evenodd"/><path fill="#000000" fill-opacity="0.0" d="m1220.8727 109.399574l-149.68091 0l0 687.5377l492.21582 0l0 -687.21484z" fill-rule="evenodd"/><path stroke="#ffffff" stroke-width="39.511811023622045" stroke-linejoin="round" stroke-linecap="butt" d="m1220.8727 109.399574l-149.68091 0l0 687.5377l492.21582 0l0 -687.21484z" fill-rule="evenodd"/><path fill="#ffffff" d="m1204.5631 269.8555l123.3584 0l0 401.96188l208.83057 0l0 94.258606l-332.18896 0z" fill-rule="evenodd"/><path fill="#434343" d="m-179.54305 208.78566l0 38.886307c0 44.023407 -17.48822 86.24371 -48.617462 117.372986c-31.129257 31.129242 -73.34956 48.617462 -117.37297 48.617462l-165.99045 0c-0.0017089844 0 -0.0030822754 -0.001373291 -0.0030822754 -0.0030822754l0.0030822754 -370.8641c0 -0.0017051697 0.0014038086 -0.0030899048 0.003112793 -0.0030899048l165.98734 0.0030899048c91.67398 0 165.99043 74.31645 165.99043 165.99043z" fill-rule="evenodd"/><path fill="#ffffff" d="m-275.9723 183.54312l0 89.35043c0 18.807556 -7.471283 36.84482 -20.770233 50.14377c-13.29895 13.298981 -31.336212 20.770264 -50.1438 20.770264l-70.91403 0c-0.0010681152 0 -0.0019226074 -8.8500977E-4 -0.0019226074 -0.0019226074l0.0019226074 -231.17657c0 -0.0010604858 8.544922E-4 -0.0019226074 0.0019226074 -0.0019226074l70.91211 0.0019226074c39.164734 0 70.91403 31.74929 70.91403 70.91404z" fill-rule="evenodd"/><path fill="#434343" d="m-437.02173 530.7069c0 -18.52948 15.021088 -33.5506 33.550537 -33.5506l161.05638 0c8.898148 0 17.43187 3.53479 23.723816 9.826752c6.2919464 6.2919617 9.826736 14.825653 9.826736 23.723846l0 545.7178c0 18.529419 -15.021103 33.550537 -33.550552 33.550537l-161.05638 0c-18.52945 0 -33.550537 -15.021118 -33.550537 -33.550537z" fill-rule="evenodd"/><path fill="#434343" d="m-422.95258 836.58014l200.60999 0l0 325.8415l-100.30499 81.46033l-100.30499 -81.46033z" fill-rule="evenodd"/><path stroke="#434343" stroke-width="27.00787401574803" stroke-linejoin="round" stroke-linecap="butt" d="m-422.95258 836.58014l200.60999 0l0 325.8415l-100.30499 81.46033l-100.30499 -81.46033z" fill-rule="evenodd"/><path fill="#434343" d="m-1098.2635 531.98004c0 -19.232605 15.591064 -34.82373 34.82373 -34.82373l546.9195 0c9.235779 0 18.093323 3.6689148 24.624054 10.199646c6.5307007 6.5307007 10.1996155 15.388245 10.1996155 24.624084l0 691.86444c0 19.232544 -15.591095 34.82361 -34.82367 34.82361l-546.9195 0c-19.232666 0 -34.82373 -15.591064 -34.82373 -34.82361z" fill-rule="evenodd"/><path fill="#e06666" d="m-376.8609 558.223l104.50394 0l0 57.95276l-104.50394 0z" fill-rule="evenodd"/><path fill="#b7b7b7" d="m-376.8609 616.194l104.50394 0l0 57.95276l-104.50394 0z" fill-rule="evenodd"/><path fill="#f1c232" d="m-376.8612 954.316l104.55661 0l0 181.4002l-52.27829 45.350098l-52.27832 -45.350098z" fill-rule="evenodd"/><path fill="#f1c232" d="m-376.8609 674.16486l104.50394 0l0 285.03937l-104.50394 0z" fill-rule="evenodd"/><path fill="#ffffff" d="m-1031.52 575.35034l477.38586 0l0 605.1969l-477.38586 0z" fill-rule="evenodd"/><path fill="#999999" d="m-1168.8608 707.12695c0 -18.203674 14.756958 -32.960632 32.96057 -32.960632l140.37793 0c8.74176 0 17.125366 3.4725952 23.306702 9.653931c6.1813354 6.1813354 9.653931 14.564941 9.653931 23.306702l0 0c0 18.203613 -14.756958 32.96057 -32.960632 32.96057l-140.37793 0c-18.203613 0 -32.96057 -14.756958 -32.96057 -32.96057z" fill-rule="evenodd"/><path fill="#999999" d="m-1168.8608 877.997c0 -18.203674 14.756958 -32.960632 32.96057 -32.960632l140.37793 0c8.74176 0 17.125366 3.4725952 23.306702 9.653931c6.1813354 6.1813354 9.653931 14.565002 9.653931 23.306702l0 0c0 18.203613 -14.756958 32.960632 -32.960632 32.960632l-140.37793 0c-18.203613 0 -32.96057 -14.757019 -32.96057 -32.960632z" fill-rule="evenodd"/><path fill="#999999" d="m-1168.8608 1048.8671c0 -18.203613 14.756958 -32.960632 32.96057 -32.960632l140.37793 0c8.74176 0 17.125366 3.4725952 23.306702 9.65387c6.1813354 6.1813965 9.653931 14.565063 9.653931 23.306763l0 0c0 18.203613 -14.756958 32.96057 -32.960632 32.96057l-140.37793 0c-18.203613 0 -32.96057 -14.756958 -32.96057 -32.96057z" fill-rule="evenodd"/><path fill="#000000" fill-opacity="0.0" d="m-908.3513 622.42255l0 511.1496" fill-rule="evenodd"/><path stroke="#e06666" stroke-width="8.0" stroke-linejoin="round" stroke-linecap="butt" d="m-908.3513 622.42255l0 511.1496" fill-rule="evenodd"/><path fill="#000000" fill-opacity="0.0" d="m-936.0285 707.126l336.0315 0" fill-rule="evenodd"/><path stroke="#6fa8dc" stroke-width="8.0" stroke-linejoin="round" stroke-linecap="butt" d="m-936.0285 707.126l336.0315 0" fill-rule="evenodd"/><path fill="#000000" fill-opacity="0.0" d="m-936.0285 821.03937l336.0315 0" fill-rule="evenodd"/><path stroke="#6fa8dc" stroke-width="8.0" stroke-linejoin="round" stroke-linecap="butt" d="m-936.0285 821.03937l336.0315 0" fill-rule="evenodd"/><path fill="#000000" fill-opacity="0.0" d="m-936.0285 1048.8661l336.0315 0" fill-rule="evenodd"/><path stroke="#6fa8dc" stroke-width="8.0" stroke-linejoin="round" stroke-linecap="butt" d="m-936.0285 1048.8661l336.0315 0" fill-rule="evenodd"/><path fill="#000000" fill-opacity="0.0" d="m-936.0285 934.95276l336.0315 0" fill-rule="evenodd"/><path stroke="#6fa8dc" stroke-width="8.0" stroke-linejoin="round" stroke-linecap="butt" d="m-936.0285 934.95276l336.0315 0" fill-rule="evenodd"/><path fill="#333333" d="m206.85176 316.86478c43.08667 -130.15848 154.3514 -216.90152 279.12567 -217.60904c124.77426 -0.70751953 236.82944 84.769196 281.1086 214.43228l-77.23212 32.58423c-31.180725 -98.55577 -112.55658 -163.92436 -203.4184 -163.40445c-90.861755 0.5199127 -171.67267 66.81654 -202.00616 165.7243z" fill-rule="evenodd"/><path fill="#333333" d="m210.54495 738.51605c-75.87047 0.6168213 -146.10335 -40.615112 -183.46333 -107.70679c-37.359985 -67.09161 -35.9707 -149.49005 3.6291084 -215.24237c39.59981 -65.75229 111.18146 -104.516235 186.98663 -101.259735l-3.4576569 83.07849c-45.63411 -2.0013428 -88.735466 21.562134 -112.58499 61.55017c-23.849525 39.988037 -24.694572 90.10861 -2.2073517 130.91983c22.48722 40.81128 64.76842 65.891785 110.44266 65.512634z" fill-rule="evenodd"/><path fill="#333333" d="m186.19507 354.7698c0 -27.269928 22.11731 -49.376556 49.40039 -49.376556c13.101791 0 25.666992 5.2021484 34.931366 14.462067c9.264343 9.259888 14.469025 21.81903 14.469025 34.91449c0 27.269958 -22.11731 49.376587 -49.40039 49.376587c-27.283081 0 -49.40039 -22.106628 -49.40039 -49.376587z" fill-rule="evenodd"/><path fill="#333333" d="m171.73193 696.5905c0 -23.231384 18.886078 -42.064148 42.183258 -42.064148c11.187698 0 21.917175 4.4317627 29.82808 12.3203125c7.9108887 7.88855 12.355179 18.587708 12.355179 29.743835c0 23.231384 -18.886078 42.06421 -42.183258 42.06421c-23.29718 0 -42.183258 -18.832825 -42.183258 -42.06421z" fill-rule="evenodd"/><path fill="#333333" d="m749.48444 731.6165c76.06305 0.6184082 146.44324 -40.822937 183.72748 -108.18262c37.28424 -67.35962 35.576965 -149.98636 -4.456909 -215.69699c-40.033813 -65.71066 -112.06384 -104.114685 -188.0343 -100.25372l4.0997925 83.266785c45.655457 -2.368988 88.95459 20.933868 113.02649 60.82892c24.0719 39.89508 25.108704 90.07132 2.7063599 130.97836c-22.402405 40.907043 -64.70001 66.07373 -110.41229 65.694275z" fill-rule="evenodd"/><path fill="#333333" d="m783.0792 344.24658c0 -27.269928 -22.11731 -49.376587 -49.40039 -49.376587c-13.101807 0 -25.666992 5.202179 -34.931335 14.462067c-9.264404 9.259918 -14.469055 21.81903 -14.469055 34.91452c0 27.269928 22.11731 49.376587 49.40039 49.376587c27.283081 0 49.40039 -22.106659 49.40039 -49.376587z" fill-rule="evenodd"/><path fill="#333333" d="m788.2975 689.691c0 -23.231384 -18.886108 -42.064148 -42.18329 -42.064148c-11.187683 0 -21.917175 4.4317017 -29.828064 12.3203125c-7.9108887 7.88855 -12.355225 18.587708 -12.355225 29.743835c0 23.231384 18.886108 42.06421 42.18329 42.06421c23.29718 0 42.18329 -18.832825 42.18329 -42.06421z" fill-rule="evenodd"/><path fill="#990000" d="m344.87265 840.39545c-15.063873 -15.063904 -15.063873 -39.487305 0 -54.55121l209.6063 -209.60626c7.2339478 -7.2339478 17.045288 -11.297913 27.275574 -11.297913c10.230347 0 20.041687 4.063965 27.275635 11.297913l0 0c15.063904 15.063904 15.063904 39.487305 0 54.551147l-209.60632 209.60632c-15.063873 15.063904 -39.487274 15.063904 -54.551178 0z" fill-rule="evenodd"/><path fill="#990000" d="m350.99863 576.238c15.063904 -15.063904 39.487305 -15.063904 54.55121 0l209.6063 209.60626c7.2339478 7.2339478 11.297913 17.045288 11.297913 27.275635c0 10.230286 -4.063965 20.041626 -11.297913 27.275574l0 0c-15.063904 15.063904 -39.487305 15.063904 -54.55121 0l-209.6063 -209.60632c-15.063873 -15.063843 -15.063873 -39.487244 0 -54.551147z" fill-rule="evenodd"/></g></svg>