<svg version="1.1" viewBox="0.0 0.0 960.0 960.0" fill="none" stroke="none" stroke-linecap="square" stroke-miterlimit="10" xmlns:xlink="http://www.w3.org/1999/xlink" xmlns="http://www.w3.org/2000/svg"><clipPath id="p.0"><path d="m0 0l960.0 0l0 960.0l-960.0 0l0 -960.0z" clip-rule="nonzero"/></clipPath><g clip-path="url(#p.0)"><path fill="#000000" fill-opacity="0.0" d="m0 0l960.0 0l0 960.0l-960.0 0z" fill-rule="evenodd"/><path fill="#434343" d="m731.83655 132.7305c0 -18.529457 15.021057 -33.550552 33.550537 -33.550552l161.05634 0c8.898193 0 17.431885 3.5347824 23.723877 9.826729c6.291931 6.291954 9.826721 14.825668 9.826721 23.723824l0 545.7178c0 18.529419 -15.021118 33.550537 -33.5506 33.550537l-161.05634 0c-18.52948 0 -33.550537 -15.021118 -33.550537 -33.550537z" fill-rule="evenodd"/><path fill="#434343" d="m745.9057 438.60376l200.60999 0l0 325.8415l-100.30499 81.46033l-100.30499 -81.46033z" fill-rule="evenodd"/><path stroke="#434343" stroke-width="27.00787401574803" stroke-linejoin="round" stroke-linecap="butt" d="m745.9057 438.60376l200.60999 0l0 325.8415l-100.30499 81.46033l-100.30499 -81.46033z" fill-rule="evenodd"/><path fill="#434343" d="m70.59469 134.00365c0 -19.232597 15.591103 -34.8237 34.8237 -34.8237l546.9195 0c9.23584 0 18.093384 3.6689148 24.624084 10.199623c6.5307007 6.530716 10.199646 15.38826 10.199646 24.624077l0 691.8644c0 19.232605 -15.5911255 34.82373 -34.82373 34.82373l-546.9195 0c-19.232597 0 -34.8237 -15.5911255 -34.8237 -34.82373z" fill-rule="evenodd"/><path fill="#e06666" d="m791.9974 160.24667l104.50391 0l0 57.952744l-104.50391 0z" fill-rule="evenodd"/><path fill="#b7b7b7" d="m791.9974 218.21756l104.50391 0l0 57.95276l-104.50391 0z" fill-rule="evenodd"/><path fill="#f1c232" d="m791.9971 556.3396l104.55658 0l0 181.4002l-52.27826 45.350037l-52.27832 -45.350037z" fill-rule="evenodd"/><path fill="#f1c232" d="m791.9974 276.18848l104.50391 0l0 285.03937l-104.50391 0z" fill-rule="evenodd"/><path fill="#000000" fill-opacity="0.0" d="m1680.6487 741.1715l91.45276 77.242615l90.68335 -77.07489l0 -654.3051l-182.32593 0z" fill-rule="evenodd"/><path stroke="#ffffff" stroke-width="39.511811023622045" stroke-linejoin="round" stroke-linecap="butt" d="m1680.6487 741.1715l91.45276 77.242615l90.68335 -77.07489l0 -654.3051l-182.32593 0z" fill-rule="evenodd"/><path fill="#000000" fill-opacity="0.0" d="m1704.0198 724.13824l67.95862 72.68158l67.387085 -72.5238l0 -615.6696l-135.48682 0z" fill-rule="evenodd"/><path stroke="#ffffff" stroke-width="39.511811023622045" stroke-linejoin="round" stroke-linecap="butt" d="m1704.0198 724.13824l67.95862 72.68158l67.387085 -72.5238l0 -615.6696l-135.48682 0z" fill-rule="evenodd"/><path fill="#000000" fill-opacity="0.0" d="m1720.104 206.00296l103.02991 0" fill-rule="evenodd"/><path stroke="#ffffff" stroke-width="39.511811023622045" stroke-linejoin="round" stroke-linecap="butt" d="m1720.104 206.00296l103.02991 0" fill-rule="evenodd"/><path fill="#000000" fill-opacity="0.0" d="m1720.104 226.61844l103.02991 0" fill-rule="evenodd"/><path stroke="#ffffff" stroke-width="39.511811023622045" stroke-linejoin="round" stroke-linecap="butt" d="m1720.104 226.61844l103.02991 0" fill-rule="evenodd"/><path fill="#000000" fill-opacity="0.0" d="m1212.7737 86.65385l-162.23633 0l0 731.3945l533.5032 0l0 -731.051z" fill-rule="evenodd"/><path stroke="#ffffff" stroke-width="39.511811023622045" stroke-linejoin="round" stroke-linecap="butt" d="m1212.7737 86.65385l-162.23633 0l0 731.3945l533.5032 0l0 -731.051z" fill-rule="evenodd"/><path fill="#000000" fill-opacity="0.0" d="m1207.4761 94.61414l0 710.6312" fill-rule="evenodd"/><path stroke="#ffffff" stroke-width="39.511811023622045" stroke-linejoin="round" stroke-linecap="butt" d="m1207.4761 94.61414l0 710.6312" fill-rule="evenodd"/><path fill="#000000" fill-opacity="0.0" d="m1229.1517 94.61414l0 710.6312" fill-rule="evenodd"/><path stroke="#ffffff" stroke-width="39.511811023622045" stroke-linejoin="round" stroke-linecap="butt" d="m1229.1517 94.61414l0 710.6312" fill-rule="evenodd"/><path fill="#000000" fill-opacity="0.0" d="m1220.8727 109.399574l-149.68091 0l0 687.5377l492.21582 0l0 -687.21484z" fill-rule="evenodd"/><path stroke="#ffffff" stroke-width="39.511811023622045" stroke-linejoin="round" stroke-linecap="butt" d="m1220.8727 109.399574l-149.68091 0l0 687.5377l492.21582 0l0 -687.21484z" fill-rule="evenodd"/><path fill="#ffffff" d="m1204.5631 269.8555l123.3584 0l0 401.96188l208.83057 0l0 94.258606l-332.18896 0z" fill-rule="evenodd"/><path fill="#434343" d="m-179.54305 208.78566l0 38.886307c0 44.023407 -17.48822 86.24371 -48.617462 117.372986c-31.129257 31.129242 -73.34956 48.617462 -117.37297 48.617462l-165.99045 0c-0.0017089844 0 -0.0030822754 -0.001373291 -0.0030822754 -0.0030822754l0.0030822754 -370.8641c0 -0.0017051697 0.0014038086 -0.0030899048 0.003112793 -0.0030899048l165.98734 0.0030899048c91.67398 0 165.99043 74.31645 165.99043 165.99043z" fill-rule="evenodd"/><path fill="#ffffff" d="m-275.9723 183.54312l0 89.35043c0 18.807556 -7.471283 36.84482 -20.770233 50.14377c-13.29895 13.298981 -31.336212 20.770264 -50.1438 20.770264l-70.91403 0c-0.0010681152 0 -0.0019226074 -8.8500977E-4 -0.0019226074 -0.0019226074l0.0019226074 -231.17657c0 -0.0010604858 8.544922E-4 -0.0019226074 0.0019226074 -0.0019226074l70.91211 0.0019226074c39.164734 0 70.91403 31.74929 70.91403 70.91404z" fill-rule="evenodd"/><path fill="#ffffff" d="m137.33829 177.37398l477.38583 0l0 605.1969l-477.38583 0z" fill-rule="evenodd"/><path fill="#999999" d="m-0.002625197 309.15054c0 -18.203644 14.756977 -32.960632 32.96063 -32.960632l140.37794 0c8.7417145 0 17.125366 3.4726257 23.306686 9.653961c6.18132 6.181305 9.653946 14.564972 9.653946 23.306671l0 0c0 18.203644 -14.756973 32.960632 -32.960632 32.960632l-140.37794 0c-18.203651 0 -32.96063 -14.756989 -32.96063 -32.960632z" fill-rule="evenodd"/><path fill="#999999" d="m-0.002625197 480.0206c0 -18.203644 14.756977 -32.960632 32.96063 -32.960632l140.37794 0c8.7417145 0 17.125366 3.4726257 23.306686 9.653961c6.18132 6.181305 9.653946 14.564972 9.653946 23.306671l0 0c0 18.203674 -14.756973 32.960663 -32.960632 32.960663l-140.37794 0c-18.203651 0 -32.96063 -14.756989 -32.96063 -32.960663z" fill-rule="evenodd"/><path fill="#999999" d="m-0.002625197 650.8907c0 -18.203674 14.756977 -32.960632 32.96063 -32.960632l140.37794 0c8.7417145 0 17.125366 3.4725952 23.306686 9.653931c6.18132 6.1813354 9.653946 14.565002 9.653946 23.306702l0 0c0 18.203613 -14.756973 32.960632 -32.960632 32.960632l-140.37794 0c-18.203651 0 -32.96063 -14.757019 -32.96063 -32.960632z" fill-rule="evenodd"/><path fill="#000000" fill-opacity="0.0" d="m260.50693 224.4462l0 511.14963" fill-rule="evenodd"/><path stroke="#e06666" stroke-width="8.0" stroke-linejoin="round" stroke-linecap="butt" d="m260.50693 224.4462l0 511.14963" fill-rule="evenodd"/><path fill="#000000" fill-opacity="0.0" d="m232.82976 309.1496l336.0315 0" fill-rule="evenodd"/><path stroke="#6fa8dc" stroke-width="8.0" stroke-linejoin="round" stroke-linecap="butt" d="m232.82976 309.1496l336.0315 0" fill-rule="evenodd"/><path fill="#000000" fill-opacity="0.0" d="m232.82976 423.063l336.0315 0" fill-rule="evenodd"/><path stroke="#6fa8dc" stroke-width="8.0" stroke-linejoin="round" stroke-linecap="butt" d="m232.82976 423.063l336.0315 0" fill-rule="evenodd"/><path fill="#000000" fill-opacity="0.0" d="m232.82976 650.8898l336.0315 0" fill-rule="evenodd"/><path stroke="#6fa8dc" stroke-width="8.0" stroke-linejoin="round" stroke-linecap="butt" d="m232.82976 650.8898l336.0315 0" fill-rule="evenodd"/><path fill="#000000" fill-opacity="0.0" d="m232.82976 536.9764l336.0315 0" fill-rule="evenodd"/><path stroke="#6fa8dc" stroke-width="8.0" stroke-linejoin="round" stroke-linecap="butt" d="m232.82976 536.9764l336.0315 0" fill-rule="evenodd"/></g></svg>