<svg version="1.1" viewBox="0.0 0.0 960.0 960.0" fill="none" stroke="none" stroke-linecap="square" stroke-miterlimit="10" xmlns:xlink="http://www.w3.org/1999/xlink" xmlns="http://www.w3.org/2000/svg"><clipPath id="p.0"><path d="m0 0l960.0 0l0 960.0l-960.0 0l0 -960.0z" clip-rule="nonzero"/></clipPath><g clip-path="url(#p.0)"><path fill="#000000" fill-opacity="0.0" d="m0 0l960.0 0l0 960.0l-960.0 0z" fill-rule="evenodd"/><path fill="#000000" fill-opacity="0.0" d="m1680.6487 741.1715l91.45276 77.242615l90.68335 -77.07489l0 -654.3051l-182.32593 0z" fill-rule="evenodd"/><path stroke="#ffffff" stroke-width="39.511811023622045" stroke-linejoin="round" stroke-linecap="butt" d="m1680.6487 741.1715l91.45276 77.242615l90.68335 -77.07489l0 -654.3051l-182.32593 0z" fill-rule="evenodd"/><path fill="#000000" fill-opacity="0.0" d="m1704.0198 724.13824l67.95862 72.68158l67.387085 -72.5238l0 -615.6696l-135.48682 0z" fill-rule="evenodd"/><path stroke="#ffffff" stroke-width="39.511811023622045" stroke-linejoin="round" stroke-linecap="butt" d="m1704.0198 724.13824l67.95862 72.68158l67.387085 -72.5238l0 -615.6696l-135.48682 0z" fill-rule="evenodd"/><path fill="#000000" fill-opacity="0.0" d="m1720.104 206.00296l103.02991 0" fill-rule="evenodd"/><path stroke="#ffffff" stroke-width="39.511811023622045" stroke-linejoin="round" stroke-linecap="butt" d="m1720.104 206.00296l103.02991 0" fill-rule="evenodd"/><path fill="#000000" fill-opacity="0.0" d="m1720.104 226.61844l103.02991 0" fill-rule="evenodd"/><path stroke="#ffffff" stroke-width="39.511811023622045" stroke-linejoin="round" stroke-linecap="butt" d="m1720.104 226.61844l103.02991 0" fill-rule="evenodd"/><path fill="#000000" fill-opacity="0.0" d="m1212.7737 86.65385l-162.23633 0l0 731.3945l533.5032 0l0 -731.051z" fill-rule="evenodd"/><path stroke="#ffffff" stroke-width="39.511811023622045" stroke-linejoin="round" stroke-linecap="butt" d="m1212.7737 86.65385l-162.23633 0l0 731.3945l533.5032 0l0 -731.051z" fill-rule="evenodd"/><path fill="#000000" fill-opacity="0.0" d="m1207.4761 94.61414l0 710.6312" fill-rule="evenodd"/><path stroke="#ffffff" stroke-width="39.511811023622045" stroke-linejoin="round" stroke-linecap="butt" d="m1207.4761 94.61414l0 710.6312" fill-rule="evenodd"/><path fill="#000000" fill-opacity="0.0" d="m1229.1517 94.61414l0 710.6312" fill-rule="evenodd"/><path stroke="#ffffff" stroke-width="39.511811023622045" stroke-linejoin="round" stroke-linecap="butt" d="m1229.1517 94.61414l0 710.6312" fill-rule="evenodd"/><path fill="#000000" fill-opacity="0.0" d="m1220.8727 109.399574l-149.68091 0l0 687.5377l492.21582 0l0 -687.21484z" fill-rule="evenodd"/><path stroke="#ffffff" stroke-width="39.511811023622045" stroke-linejoin="round" stroke-linecap="butt" d="m1220.8727 109.399574l-149.68091 0l0 687.5377l492.21582 0l0 -687.21484z" fill-rule="evenodd"/><path fill="#ffffff" d="m1204.5631 269.8555l123.3584 0l0 401.96188l208.83057 0l0 94.258606l-332.18896 0z" fill-rule="evenodd"/><path fill="#434343" d="m-179.54305 208.78566l0 38.886307c0 44.023407 -17.48822 86.24371 -48.617462 117.372986c-31.129257 31.129242 -73.34956 48.617462 -117.37297 48.617462l-165.99045 0c-0.0017089844 0 -0.0030822754 -0.001373291 -0.0030822754 -0.0030822754l0.0030822754 -370.8641c0 -0.0017051697 0.0014038086 -0.0030899048 0.003112793 -0.0030899048l165.98734 0.0030899048c91.67398 0 165.99043 74.31645 165.99043 165.99043z" fill-rule="evenodd"/><path fill="#ffffff" d="m-275.9723 183.54312l0 89.35043c0 18.807556 -7.471283 36.84482 -20.770233 50.14377c-13.29895 13.298981 -31.336212 20.770264 -50.1438 20.770264l-70.91403 0c-0.0010681152 0 -0.0019226074 -8.8500977E-4 -0.0019226074 -0.0019226074l0.0019226074 -231.17657c0 -0.0010604858 8.544922E-4 -0.0019226074 0.0019226074 -0.0019226074l70.91211 0.0019226074c39.164734 0 70.91403 31.74929 70.91403 70.91404z" fill-rule="evenodd"/><path fill="#434343" d="m-437.02173 530.7069c0 -18.52948 15.021088 -33.5506 33.550537 -33.5506l161.05638 0c8.898148 0 17.43187 3.53479 23.723816 9.826752c6.2919464 6.2919617 9.826736 14.825653 9.826736 23.723846l0 545.7178c0 18.529419 -15.021103 33.550537 -33.550552 33.550537l-161.05638 0c-18.52945 0 -33.550537 -15.021118 -33.550537 -33.550537z" fill-rule="evenodd"/><path fill="#434343" d="m-422.95258 836.58014l200.60999 0l0 325.8415l-100.30499 81.46033l-100.30499 -81.46033z" fill-rule="evenodd"/><path stroke="#434343" stroke-width="27.00787401574803" stroke-linejoin="round" stroke-linecap="butt" d="m-422.95258 836.58014l200.60999 0l0 325.8415l-100.30499 81.46033l-100.30499 -81.46033z" fill-rule="evenodd"/><path fill="#434343" d="m-1098.2635 531.98004c0 -19.232605 15.591064 -34.82373 34.82373 -34.82373l546.9195 0c9.235779 0 18.093323 3.6689148 24.624054 10.199646c6.5307007 6.5307007 10.1996155 15.388245 10.1996155 24.624084l0 691.86444c0 19.232544 -15.591095 34.82361 -34.82367 34.82361l-546.9195 0c-19.232666 0 -34.82373 -15.591064 -34.82373 -34.82361z" fill-rule="evenodd"/><path fill="#e06666" d="m-376.8609 558.223l104.50394 0l0 57.95276l-104.50394 0z" fill-rule="evenodd"/><path fill="#b7b7b7" d="m-376.8609 616.194l104.50394 0l0 57.95276l-104.50394 0z" fill-rule="evenodd"/><path fill="#f1c232" d="m-376.8612 954.316l104.55661 0l0 181.4002l-52.27829 45.350098l-52.27832 -45.350098z" fill-rule="evenodd"/><path fill="#f1c232" d="m-376.8609 674.16486l104.50394 0l0 285.03937l-104.50394 0z" fill-rule="evenodd"/><path fill="#ffffff" d="m-1031.52 575.35034l477.38586 0l0 605.1969l-477.38586 0z" fill-rule="evenodd"/><path fill="#999999" d="m-1168.8608 707.12695c0 -18.203674 14.756958 -32.960632 32.96057 -32.960632l140.37793 0c8.74176 0 17.125366 3.4725952 23.306702 9.653931c6.1813354 6.1813354 9.653931 14.564941 9.653931 23.306702l0 0c0 18.203613 -14.756958 32.96057 -32.960632 32.96057l-140.37793 0c-18.203613 0 -32.96057 -14.756958 -32.96057 -32.96057z" fill-rule="evenodd"/><path fill="#999999" d="m-1168.8608 877.997c0 -18.203674 14.756958 -32.960632 32.96057 -32.960632l140.37793 0c8.74176 0 17.125366 3.4725952 23.306702 9.653931c6.1813354 6.1813354 9.653931 14.565002 9.653931 23.306702l0 0c0 18.203613 -14.756958 32.960632 -32.960632 32.960632l-140.37793 0c-18.203613 0 -32.96057 -14.757019 -32.96057 -32.960632z" fill-rule="evenodd"/><path fill="#999999" d="m-1168.8608 1048.8671c0 -18.203613 14.756958 -32.960632 32.96057 -32.960632l140.37793 0c8.74176 0 17.125366 3.4725952 23.306702 9.65387c6.1813354 6.1813965 9.653931 14.565063 9.653931 23.306763l0 0c0 18.203613 -14.756958 32.96057 -32.960632 32.96057l-140.37793 0c-18.203613 0 -32.96057 -14.756958 -32.96057 -32.96057z" fill-rule="evenodd"/><path fill="#000000" fill-opacity="0.0" d="m-908.3513 622.42255l0 511.1496" fill-rule="evenodd"/><path stroke="#e06666" stroke-width="8.0" stroke-linejoin="round" stroke-linecap="butt" d="m-908.3513 622.42255l0 511.1496" fill-rule="evenodd"/><path fill="#000000" fill-opacity="0.0" d="m-936.0285 707.126l336.0315 0" fill-rule="evenodd"/><path stroke="#6fa8dc" stroke-width="8.0" stroke-linejoin="round" stroke-linecap="butt" d="m-936.0285 707.126l336.0315 0" fill-rule="evenodd"/><path fill="#000000" fill-opacity="0.0" d="m-936.0285 821.03937l336.0315 0" fill-rule="evenodd"/><path stroke="#6fa8dc" stroke-width="8.0" stroke-linejoin="round" stroke-linecap="butt" d="m-936.0285 821.03937l336.0315 0" fill-rule="evenodd"/><path fill="#000000" fill-opacity="0.0" d="m-936.0285 1048.8661l336.0315 0" fill-rule="evenodd"/><path stroke="#6fa8dc" stroke-width="8.0" stroke-linejoin="round" stroke-linecap="butt" d="m-936.0285 1048.8661l336.0315 0" fill-rule="evenodd"/><path fill="#000000" fill-opacity="0.0" d="m-936.0285 934.95276l336.0315 0" fill-rule="evenodd"/><path stroke="#6fa8dc" stroke-width="8.0" stroke-linejoin="round" stroke-linecap="butt" d="m-936.0285 934.95276l336.0315 0" fill-rule="evenodd"/><path fill="#cfe2f3" d="m242.2203 616.31l191.35178 0c-21.136139 0 -38.270355 50.41925 -38.270355 112.61456c0 62.195312 17.134216 112.614624 38.270355 112.614624l-191.35178 0c-21.136124 0 -38.270355 -50.41931 -38.270355 -112.614624c0 -62.195312 17.134232 -112.61456 38.270355 -112.61456z" fill-rule="evenodd"/><path fill="#3c78d8" d="m615.695 616.31l202.34045 0c-22.349915 0 -40.46808 50.41925 -40.46808 112.61456c0 62.195312 18.118164 112.614624 40.46808 112.614624l-202.34045 0c-22.349915 0 -40.46814 -50.41931 -40.46814 -112.614624c0 -62.195312 18.118225 -112.61456 40.46814 -112.61456z" fill-rule="evenodd"/><path fill="#3c78d8" d="m426.48798 616.31l192.56982 0c-21.27069 0 -38.513977 50.41925 -38.513977 112.61456c0 62.195312 17.243286 112.614624 38.513977 112.614624l-192.56982 0c-21.27069 0 -38.513977 -50.41931 -38.513977 -112.614624c0 -62.195312 17.243286 -112.61456 38.513977 -112.61456z" fill-rule="evenodd"/><path fill="#3c78d8" d="m168.61888 616.31l378.56744 0c-41.81543 0 -75.7135 50.41925 -75.7135 112.61456c0 62.195312 33.89807 112.614624 75.7135 112.614624l-378.56744 0c-41.815407 0 -75.71349 -50.41931 -75.71349 -112.614624c0 -62.195312 33.898087 -112.61456 75.71349 -112.61456z" fill-rule="evenodd"/><path fill="#333333" d="m865.2417 571.2604c0 -24.873962 20.164307 -45.03827 45.03827 -45.03827c11.944885 0 23.400513 4.745117 31.846802 13.191406c8.44635 8.44635 13.191406 19.901978 13.191406 31.846863c0 24.873901 -20.164307 45.038208 -45.038208 45.038208c-24.873962 0 -45.03827 -20.164307 -45.03827 -45.038208z" fill-rule="evenodd"/><path fill="#333333" d="m181.93393 931.63464c-98.89181 0 -179.05946 -90.7547 -179.05946 -202.70624c0 -111.9516 80.16765 -202.7063 179.05946 -202.7063l0 89.529785c-49.445892 0 -89.529724 50.670837 -89.529724 113.17651c0 62.505615 40.08383 113.17651 89.529724 113.17651z" fill-rule="evenodd"/><path fill="#333333" d="m180.79868 526.2221l731.04553 0l0 90.07648l-731.04553 0z" fill-rule="evenodd"/><path fill="#333333" d="m865.23413 886.5774c0 -24.873901 20.164307 -45.038208 45.038208 -45.038208c11.944885 0 23.400574 4.745056 31.846863 13.191406c8.446289 8.446289 13.191406 19.901917 13.191406 31.846802c0 24.873962 -20.164307 45.03827 -45.03827 45.03827c-24.873901 0 -45.038208 -20.164307 -45.038208 -45.03827z" fill-rule="evenodd"/><path fill="#333333" d="m180.79109 841.5392l731.0456 0l0 90.07648l-731.0456 0z" fill-rule="evenodd"/><path fill="#333333" d="m904.79767 922.9336c-79.34448 -25.624084 -133.96094 -103.15283 -134.95709 -191.5733c-0.99609375 -88.42053 51.85797 -167.32678 130.6023 -194.97717l23.601929 76.47351c-44.90979 17.233582 -74.84357 64.64142 -74.252014 117.596924c0.59161377 52.955505 31.575256 99.51721 76.85608 115.497986z" fill-rule="evenodd"/><path fill="#cfe2f3" d="m719.4385 343.41965l-191.35175 0c21.136108 0 38.270325 -50.41925 38.270325 -112.61458c0 -62.195312 -17.134216 -112.61458 -38.270325 -112.61458l191.35175 0c21.136108 0 38.270386 50.419266 38.270386 112.61458c0 62.195328 -17.134277 112.61458 -38.270386 112.61458z" fill-rule="evenodd"/><path fill="#990000" d="m354.00024 343.41965l-210.57965 0c23.259995 0 42.115936 -50.41925 42.115936 -112.61458c0 -62.195312 -18.855942 -112.61458 -42.115936 -112.61458l210.57965 0c23.25998 0 42.115936 50.419266 42.115936 112.61458c0 62.195328 -18.855957 112.61458 -42.115936 112.61458z" fill-rule="evenodd"/><path fill="#990000" d="m537.41504 343.41965l-193.6932 0c21.394745 0 38.738617 -50.41925 38.738617 -112.61458c0 -62.195312 -17.343872 -112.61458 -38.738617 -112.61458l193.6932 0c21.394714 0 38.738647 50.419266 38.738647 112.61458c0 62.195328 -17.343933 112.61458 -38.738647 112.61458z" fill-rule="evenodd"/><path fill="#990000" d="m796.78845 343.41965l-380.7759 0c42.059326 0 76.15518 -50.41925 76.15518 -112.61458c0 -62.195312 -34.095856 -112.61458 -76.15518 -112.61458l380.7759 0c42.059326 0 76.15515 50.419266 76.15515 112.61458c0 62.195328 -34.095825 112.61458 -76.15515 112.61458z" fill-rule="evenodd"/><path fill="#333333" d="m96.41708 388.4693c0 24.873932 -20.164307 45.03824 -45.038242 45.03824c-11.944885 0 -23.400536 -4.7450867 -31.846844 -13.191406c-8.446309 -8.44632 -13.191395 -19.901947 -13.191395 -31.846832c0 -24.873932 20.164307 -45.03824 45.03824 -45.03824c24.873936 0 45.038242 20.164307 45.038242 45.03824z" fill-rule="evenodd"/><path fill="#333333" d="m779.72485 28.095028c98.891785 0 179.05945 90.754684 179.05945 202.70625c0 111.95155 -80.16766 202.70625 -179.05945 202.70625l0 -89.529755c49.445923 0 89.529724 -50.670837 89.529724 -113.1765c0 -62.505676 -40.0838 -113.17652 -89.529724 -113.17652z" fill-rule="evenodd"/><path fill="#333333" d="m780.8601 433.50754l-731.0456 0l0 -90.07648l731.0456 0z" fill-rule="evenodd"/><path fill="#333333" d="m96.424675 73.15225c0 24.873932 -20.164307 45.03824 -45.03824 45.03824c-11.944885 0 -23.400537 -4.7450867 -31.846846 -13.191391c-8.446308 -8.446312 -13.191395 -19.901962 -13.191395 -31.846848c0 -24.873932 20.164307 -45.03824 45.03824 -45.03824c24.873932 0 45.03824 20.164307 45.03824 45.03824z" fill-rule="evenodd"/><path fill="#333333" d="m780.86774 118.19049l-731.0456 0l0 -90.07648l731.0456 0z" fill-rule="evenodd"/><path fill="#333333" d="m56.861145 36.79609c79.34448 25.624054 133.96094 103.152824 134.95706 191.5733c0.99612427 88.42049 -51.85797 167.32677 -130.60226 194.97713l-23.60197 -76.47348c44.909786 -17.233612 74.84361 -64.64145 74.252014 -117.596954c-0.59160614 -52.955505 -31.575226 -99.517166 -76.85607 -115.497986z" fill-rule="evenodd"/></g></svg>