<?xml version="1.0" encoding="UTF-8"?>
<svg xmlns="http://www.w3.org/2000/svg" xmlns:xlink="http://www.w3.org/1999/xlink" width="24px" height="24px" viewBox="0 0 24 24" version="1.1">
<g id="surface1">
<path style=" stroke:none;fill-rule:evenodd;fill:rgb(20%,20%,20%);fill-opacity:1;" d="M 5.171875 7.921875 C 6.25 4.667969 9.03125 2.5 12.148438 2.480469 C 15.269531 2.464844 18.070312 4.601562 19.175781 7.84375 L 17.246094 8.65625 C 16.46875 6.191406 14.433594 4.558594 12.160156 4.570312 C 9.890625 4.585938 7.867188 6.242188 7.109375 8.714844 Z M 5.171875 7.921875 "/>
<path style=" stroke:none;fill-rule:evenodd;fill:rgb(20%,20%,20%);fill-opacity:1;" d="M 5.261719 18.464844 C 3.367188 18.476562 1.609375 17.449219 0.675781 15.769531 C -0.257812 14.09375 -0.222656 12.03125 0.769531 10.390625 C 1.757812 8.746094 3.546875 7.777344 5.441406 7.859375 L 5.355469 9.933594 C 4.214844 9.882812 3.136719 10.472656 2.542969 11.472656 C 1.945312 12.472656 1.925781 13.726562 2.484375 14.746094 C 3.046875 15.765625 4.105469 16.394531 5.246094 16.382812 Z M 5.261719 18.464844 "/>
<path style=" stroke:none;fill-rule:evenodd;fill:rgb(20%,20%,20%);fill-opacity:1;" d="M 4.65625 8.871094 C 4.65625 8.1875 5.207031 7.636719 5.890625 7.636719 C 6.21875 7.636719 6.53125 7.765625 6.761719 7.996094 C 6.996094 8.226562 7.125 8.542969 7.125 8.871094 C 7.125 9.550781 6.570312 10.105469 5.890625 10.105469 C 5.207031 10.105469 4.65625 9.550781 4.65625 8.871094 Z M 4.65625 8.871094 "/>
<path style=" stroke:none;fill-rule:evenodd;fill:rgb(20%,20%,20%);fill-opacity:1;" d="M 4.292969 17.414062 C 4.292969 16.832031 4.765625 16.363281 5.347656 16.363281 C 5.628906 16.363281 5.894531 16.472656 6.09375 16.671875 C 6.292969 16.867188 6.402344 17.136719 6.402344 17.414062 C 6.402344 17.996094 5.929688 18.464844 5.347656 18.464844 C 4.765625 18.464844 4.292969 17.996094 4.292969 17.414062 Z M 4.292969 17.414062 "/>
<path style=" stroke:none;fill-rule:evenodd;fill:rgb(20%,20%,20%);fill-opacity:1;" d="M 18.738281 18.289062 C 20.640625 18.304688 22.398438 17.269531 23.332031 15.585938 C 24.261719 13.902344 24.21875 11.835938 23.21875 10.195312 C 22.21875 8.550781 20.417969 7.589844 18.519531 7.6875 L 18.621094 9.769531 C 19.761719 9.710938 20.84375 10.292969 21.445312 11.289062 C 22.046875 12.285156 22.074219 13.542969 21.515625 14.5625 C 20.953125 15.585938 19.894531 16.214844 18.753906 16.207031 Z M 18.738281 18.289062 "/>
<path style=" stroke:none;fill-rule:evenodd;fill:rgb(20%,20%,20%);fill-opacity:1;" d="M 19.578125 8.605469 C 19.578125 7.925781 19.023438 7.371094 18.34375 7.371094 C 18.015625 7.371094 17.699219 7.5 17.46875 7.734375 C 17.238281 7.964844 17.105469 8.277344 17.105469 8.605469 C 17.105469 9.289062 17.660156 9.839844 18.34375 9.839844 C 19.023438 9.839844 19.578125 9.289062 19.578125 8.605469 Z M 19.578125 8.605469 "/>
<path style=" stroke:none;fill-rule:evenodd;fill:rgb(20%,20%,20%);fill-opacity:1;" d="M 19.707031 17.242188 C 19.707031 16.660156 19.234375 16.191406 18.652344 16.191406 C 18.375 16.191406 18.105469 16.300781 17.90625 16.5 C 17.710938 16.695312 17.597656 16.964844 17.597656 17.242188 C 17.597656 17.824219 18.070312 18.292969 18.652344 18.292969 C 19.234375 18.292969 19.707031 17.824219 19.707031 17.242188 Z M 19.707031 17.242188 "/>
<path style=" stroke:none;fill-rule:evenodd;fill:rgb(41.568628%,65.882355%,30.980393%);fill-opacity:1;" d="M 7.847656 16.429688 C 8.226562 16.050781 8.835938 16.050781 9.214844 16.429688 L 12.257812 19.472656 C 12.4375 19.65625 12.539062 19.898438 12.539062 20.15625 C 12.539062 20.410156 12.4375 20.65625 12.257812 20.835938 C 11.882812 21.214844 11.269531 21.214844 10.894531 20.835938 L 7.847656 17.792969 C 7.472656 17.414062 7.472656 16.804688 7.847656 16.429688 Z M 7.847656 16.429688 "/>
<path style=" stroke:none;fill-rule:evenodd;fill:rgb(41.568628%,65.882355%,30.980393%);fill-opacity:1;" d="M 10.953125 20.835938 C 10.578125 20.460938 10.578125 19.851562 10.953125 19.472656 L 16.191406 14.234375 C 16.375 14.054688 16.621094 13.953125 16.875 13.953125 C 17.128906 13.953125 17.375 14.054688 17.558594 14.234375 C 17.933594 14.609375 17.933594 15.222656 17.558594 15.597656 L 12.316406 20.835938 C 11.941406 21.214844 11.328125 21.214844 10.953125 20.835938 Z M 10.953125 20.835938 "/>
</g>
</svg>
