<svg xmlns="http://www.w3.org/2000/svg" width="920" height="1140" viewBox="0 0 920 1140">
<g>
<path d="M 709.51 1094.75 C706.58,1075.87 693.72,1023.50 687.57,1005.35 C682.01,988.92 675.33,970.77 672.73,965.00 C667.61,953.62 665.20,948.17 663.43,944.00 C658.12,931.42 638.89,895.92 629.14,880.67 C619.61,865.75 604.08,844.11 587.00,821.92 C582.30,815.82 567.42,798.23 565.48,796.50 C563.29,794.54 542.36,770.37 536.79,763.38 C524.28,747.66 513.77,728.88 510.53,716.46 C507.56,705.04 508.94,689.68 513.91,678.79 C516.08,674.04 517.41,669.38 519.06,660.71 C521.33,648.76 531.01,633.50 540.36,627.12 C549.12,621.14 553.12,620.47 578.50,620.77 C609.47,621.12 615.30,619.80 624.47,610.37 C634.00,600.57 636.05,589.49 632.01,569.55 C628.64,552.90 630.05,546.45 640.16,532.42 C648.05,521.47 648.36,519.44 643.03,513.65 C638.23,508.44 638.34,507.87 645.00,502.83 C647.47,500.95 650.40,497.77 651.49,495.74 L 653.48 492.06 L 651.24 483.28 C648.72,473.41 648.42,464.36 650.45,458.68 C653.36,450.51 658.35,447.75 675.01,445.08 C681.69,444.01 688.23,442.42 689.56,441.56 C692.90,439.37 695.31,434.32 694.64,430.94 C693.99,427.68 690.53,419.99 687.48,415.00 C686.30,413.08 682.77,406.57 679.62,400.55 C670.67,383.43 665.27,374.82 658.44,366.86 C644.14,350.16 641.85,344.83 644.55,334.46 C645.36,331.35 647.86,325.73 650.09,321.96 C659.47,306.17 659.32,298.97 648.99,270.16 C644.11,256.54 643.95,255.76 645.68,254.47 C649.42,251.69 664.97,249.19 692.00,247.02 C713.96,245.26 723.99,243.98 733.00,241.81 C745.91,238.69 754.93,233.44 753.48,229.89 C752.28,226.95 738.30,217.78 723.93,210.50 C711.20,204.05 693.77,196.50 671.50,187.79 C661.48,183.87 653.02,178.70 646.74,172.67 C641.40,167.55 639.36,164.54 634.71,155.00 C626.61,138.39 610.63,116.48 594.60,100.00 C557.14,61.49 530.04,46.76 479.00,37.15 C459.20,33.43 445.22,32.68 409.72,33.43 C365.40,34.38 369.39,34.61 366.25,30.88 C362.85,26.84 358.38,25.00 351.97,25.00 C337.17,25.00 321.00,41.83 321.00,57.25 C321.00,62.66 320.86,63.00 318.58,63.00 C317.20,63.00 314.96,61.72 313.34,60.00 C311.78,58.35 310.11,57.00 309.62,57.00 C307.92,57.00 278.42,79.96 269.32,88.37 C253.65,102.83 240.62,118.11 233.25,130.67 C232.01,132.77 229.53,136.98 227.74,140.00 C220.19,152.74 212.50,172.57 208.40,189.89 C201.91,217.21 201.64,220.20 201.47,264.00 C201.33,301.99 201.19,304.98 199.18,312.31 C196.40,322.52 192.81,329.06 182.52,342.74 C172.08,356.63 160.01,370.60 143.53,387.89 C131.07,400.96 127.97,405.37 129.88,407.28 C131.40,408.80 152.76,408.37 160.01,406.67 C167.33,404.95 200.96,393.87 208.23,390.78 C214.27,388.21 216.70,388.85 222.35,394.51 C230.94,403.10 236.00,417.48 236.00,433.30 C236.00,443.16 234.52,452.00 232.88,452.00 C232.40,452.00 232.00,450.68 232.00,449.06 C232.00,447.44 231.63,445.89 231.17,445.60 C230.71,445.32 227.90,446.74 224.92,448.75 C217.78,453.57 206.15,457.39 189.26,460.47 C172.68,463.49 163.33,466.09 156.29,469.65 C146.74,474.48 146.13,476.70 149.67,494.00 C153.67,513.58 152.10,523.34 142.95,535.61 C135.35,545.81 127.34,549.85 94.66,559.94 C83.75,563.31 70.48,567.88 65.17,570.09 C45.27,578.37 27.43,590.38 13.00,605.23 C0.26,618.33 -1.06,618.09 8.14,604.35 C17.59,590.23 31.95,576.27 48.45,565.14 C57.76,558.87 61.22,556.74 71.25,551.13 C76.94,547.95 95.73,540.38 112.50,534.51 C132.26,527.59 135.00,526.38 135.00,524.60 C135.00,523.78 134.06,518.24 132.90,512.30 C127.90,486.56 132.64,473.82 150.80,464.21 C160.28,459.19 170.69,456.24 185.00,454.51 C207.33,451.81 229.07,445.60 230.65,441.46 C231.32,439.72 226.75,428.95 223.07,423.61 C221.35,421.11 216.84,415.71 213.04,411.61 C209.25,407.52 205.42,402.78 204.54,401.08 C203.67,399.39 202.76,398.00 202.54,398.00 C202.31,398.00 197.53,400.25 191.92,402.99 C178.25,409.68 156.35,416.72 143.22,418.66 C119.57,422.14 108.58,415.53 116.96,402.87 C118.65,400.33 123.28,394.67 127.26,390.30 C152.17,362.95 171.20,338.50 177.84,325.31 C183.65,313.77 183.67,312.96 179.42,264.50 C177.91,247.31 177.82,242.16 178.82,227.89 C181.22,193.50 189.30,166.72 205.91,138.11 C212.49,126.76 220.30,116.74 231.91,104.71 C251.77,84.15 269.13,71.32 294.75,58.28 L 308.00 51.54 L 308.00 46.93 C308.00,40.03 312.70,31.64 319.99,25.54 C327.33,19.40 330.88,17.56 338.37,16.02 C350.78,13.46 361.82,17.61 369.74,27.82 L 371.54 30.14 L 384.02 27.63 C436.87,16.98 470.16,15.58 502.50,22.64 C526.39,27.86 538.19,31.55 549.50,37.35 C573.01,49.41 592.34,67.32 609.76,93.16 C619.59,107.76 632.06,129.10 637.99,141.48 C645.43,157.02 648.14,158.92 694.31,180.92 C717.55,191.99 750.42,213.85 757.20,222.73 C762.41,229.56 763.30,232.34 761.61,236.40 C757.73,245.69 741.22,250.04 700.50,252.51 C659.12,255.02 650.88,255.72 649.82,256.78 C649.11,257.49 650.51,260.88 654.34,267.66 C662.85,282.74 666.87,291.87 668.55,299.92 C670.57,309.62 669.76,314.54 664.39,325.22 C658.28,337.37 658.40,339.88 665.54,348.59 C673.34,358.11 680.09,369.68 686.87,385.16 C690.08,392.50 695.11,403.90 698.03,410.50 C703.79,423.49 704.62,428.81 702.07,436.38 C700.71,440.40 695.10,447.34 691.75,449.13 C690.70,449.70 684.41,450.76 677.78,451.48 C663.40,453.07 660.96,454.38 659.60,461.24 C658.85,465.04 659.15,467.22 661.35,474.30 C664.56,484.60 664.76,491.25 661.97,495.81 C659.88,499.24 660.08,501.00 662.56,501.00 C664.89,501.00 684.27,511.38 691.29,516.39 C708.64,528.77 730.17,557.10 744.95,587.00 C754.77,606.85 754.23,605.64 760.90,623.00 C773.09,654.73 779.26,668.16 787.54,680.95 C792.36,688.41 799.64,695.47 804.72,697.63 C808.74,699.34 816.41,699.41 817.79,697.75 C818.36,697.06 819.81,690.88 821.02,684.00 C822.23,677.12 823.80,670.09 824.51,668.37 C828.24,659.29 854.35,655.44 877.99,660.48 C885.29,662.03 896.78,666.56 895.83,667.50 C895.57,667.76 892.24,667.31 888.43,666.50 C872.67,663.16 833.27,665.60 837.33,669.66 C839.09,671.42 853.79,674.11 864.77,674.67 C878.06,675.36 892.70,673.28 896.26,670.20 C897.22,669.36 898.32,668.99 898.70,669.37 C900.62,671.28 895.01,701.14 890.06,715.38 C883.34,734.73 867.05,755.72 851.69,764.86 C839.19,772.29 820.18,775.09 806.50,771.51 C776.19,763.57 751.83,734.92 737.16,689.96 C732.16,674.65 730.75,669.38 723.58,639.36 C720.14,624.96 713.42,601.90 709.19,590.00 C705.74,580.30 694.34,557.78 688.11,548.38 C681.24,537.99 674.74,531.71 665.55,526.57 C662.05,524.61 658.95,523.00 658.68,523.00 C658.40,523.00 657.24,524.93 656.10,527.30 C654.95,529.66 651.36,534.17 648.11,537.31 C644.87,540.45 641.93,544.16 641.57,545.56 C641.18,547.13 642.17,552.56 644.18,559.80 C646.99,569.93 647.43,573.11 647.46,583.50 C647.50,594.68 647.31,595.89 644.68,601.25 C638.64,613.55 626.06,623.46 612.60,626.53 C606.82,627.85 600.78,628.09 580.00,627.82 C555.71,627.52 554.29,627.60 550.00,629.63 C547.53,630.80 544.57,632.65 543.43,633.75 C541.38,635.72 540.83,637.27 535.53,656.00 C534.04,661.22 531.79,667.11 530.52,669.07 C524.24,678.77 522.00,684.74 522.00,691.81 C522.00,698.04 522.45,699.56 526.80,708.09 C532.51,719.30 539.85,730.36 549.30,741.98 C556.04,750.28 559.24,753.81 576.97,772.50 C590.90,787.18 612.30,813.72 624.15,831.00 C626.60,834.58 630.19,839.75 632.13,842.50 C641.82,856.23 657.04,883.86 666.02,904.00 C685.61,947.98 697.25,986.04 704.96,1031.33 C709.92,1060.45 713.48,1099.00 711.22,1099.00 C710.65,1099.00 709.88,1097.09 709.51,1094.75 ZM 835.06 759.39 C851.89,754.39 870.15,735.25 879.78,712.50 C884.12,702.26 894.18,674.84 893.75,674.42 C893.57,674.24 891.19,675.14 888.46,676.42 C880.68,680.08 873.43,681.37 861.00,681.31 C852.97,681.27 846.94,680.64 841.01,679.20 C835.48,677.86 832.31,677.50 831.90,678.16 C831.55,678.72 830.99,682.21 830.64,685.91 C829.35,699.86 826.13,703.01 813.19,702.99 C806.52,702.98 804.82,702.59 800.38,700.04 C786.66,692.18 772.00,668.74 754.99,627.50 C741.94,595.85 738.71,588.85 730.27,574.00 C718.18,552.71 714.12,547.13 700.56,533.16 C690.02,522.30 681.02,515.88 666.40,508.77 C656.86,504.13 655.76,503.81 654.34,505.24 C652.31,507.26 653.17,508.54 658.32,511.16 C673.74,519.01 689.81,533.43 699.67,548.27 C707.43,559.94 719.40,584.44 724.47,599.00 C726.48,604.78 731.04,621.20 734.60,635.50 C745.52,679.41 748.38,688.69 756.76,707.50 C766.22,728.70 783.65,748.28 800.76,756.90 C810.82,761.97 823.31,762.88 835.06,759.39 Z" fill="rgba(0,0,0,1)"/>
</g>
</svg>