<?xml version="1.0" encoding="UTF-8"?>
<svg xmlns="http://www.w3.org/2000/svg" viewBox="0 0 640 360" role="img" aria-label="Mars surface habitat cluster">
  <defs>
    <linearGradient id="sky" x1="0" y1="0" x2="0" y2="1">
      <stop offset="0%" stop-color="#1a0a12"/>
      <stop offset="100%" stop-color="#4a1828"/>
    </linearGradient>
    <linearGradient id="ground" x1="0" y1="0" x2="1" y2="0">
      <stop offset="0%" stop-color="#6b2d22"/>
      <stop offset="100%" stop-color="#8a3a2c"/>
    </linearGradient>
  </defs>
  <rect width="640" height="360" fill="url(#sky)"/>
  <rect y="250" width="640" height="110" fill="url(#ground)"/>
  <circle cx="520" cy="70" r="28" fill="#c45c3a" opacity="0.85"/>
  <ellipse cx="180" cy="255" rx="140" ry="28" fill="#3d1814" opacity="0.5"/>
  <rect x="90" y="170" width="180" height="90" rx="18" fill="#8a9aa8"/>
  <rect x="110" y="188" width="42" height="42" rx="6" fill="#5ec4e8" opacity="0.55"/>
  <rect x="162" y="188" width="42" height="42" rx="6" fill="#5ec4e8" opacity="0.55"/>
  <rect x="214" y="188" width="42" height="42" rx="6" fill="#5ec4e8" opacity="0.55"/>
  <rect x="300" y="195" width="120" height="65" rx="14" fill="#7a8794"/>
  <path d="M360 195v-42h28l18 42z" fill="#9aa5b1"/>
  <rect x="430" y="210" width="95" height="50" rx="10" fill="#6d7a86"/>
  <circle cx="476" cy="235" r="10" fill="#f0c040"/>
  <path d="M40 260 Q320 220 600 265" stroke="#2a1010" stroke-width="3" fill="none" opacity="0.35"/>
  <text x="24" y="34" fill="#e8d8dc" font-family="Tahoma, sans-serif" font-size="14" font-weight="700">MCA · VALLES HABITAT CLUSTER</text>
</svg>