<?xml version="1.0" encoding="UTF-8"?>
<svg xmlns="http://www.w3.org/2000/svg" width="24" height="24" viewBox="0 0 24 24" fill="currentColor"><path fill="currentColor" fill-rule="evenodd" d="M12 2C6.48 2 2 6.58 2 12.01c0 4.42 2.87 8.17 6.84 9.5.5.09.68-.22.68-.48 0-.24-.01-.87-.01-1.7-2.78.62-3.37-1.36-3.37-1.36-.45-1.17-1.12-1.48-1.12-1.48-.92-.64.07-.63.07-.63 1.02.08 1.55 1.06 1.55 1.06.9 1.56 2.36 1.11 2.94.85.09-.67.35-1.11.63-1.37-2.22-.26-4.56-1.14-4.56-5.07 0-1.12.39-2.03 1.03-2.75-.1-.26-.45-1.3.1-2.7 0 0 .84-.28 2.75 1.05A9.2 9.2 0 0112 6.8c.84 0 1.68.11 2.47.33 1.91-1.33 2.75-1.05 2.75-1.05.55 1.4.2 2.44.1 2.7.64.72 1.03 1.63 1.03 2.75 0 3.94-2.34 4.81-4.57 5.06.36.32.68.94.68 1.9 0 1.37-.01 2.47-.01 2.81 0 .27.18.58.69.48A10.01 10.01 0 0022 12.01C22 6.58 17.52 2 12 2z"/></svg>
