<?xml version="1.0" encoding="UTF-8"?>
<svg xmlns="http://www.w3.org/2000/svg" aria-hidden="true" style="display:none"><symbol id="columns-4" viewBox="0 0 24 24" fill="none" stroke="currentColor" stroke-width="2" stroke-linecap="round" stroke-linejoin="round"><rect width="18" height="18" x="3" y="3" rx="2" />
  <path d="M7.5 3v18" />
  <path d="M12 3v18" />
  <path d="M16.5 3v18" /></symbol><symbol id="settings" viewBox="0 0 24 24" fill="none" stroke="currentColor" stroke-width="2" stroke-linecap="round" stroke-linejoin="round"><path d="M9.671 4.136a2.34 2.34 0 0 1 4.659 0 2.34 2.34 0 0 0 3.319 1.915 2.34 2.34 0 0 1 2.33 4.033 2.34 2.34 0 0 0 0 3.831 2.34 2.34 0 0 1-2.33 4.033 2.34 2.34 0 0 0-3.319 1.915 2.34 2.34 0 0 1-4.659 0 2.34 2.34 0 0 0-3.32-1.915 2.34 2.34 0 0 1-2.33-4.033 2.34 2.34 0 0 0 0-3.831A2.34 2.34 0 0 1 6.35 6.051a2.34 2.34 0 0 0 3.319-1.915" />
  <circle cx="12" cy="12" r="3" /></symbol><symbol id="list-filter" viewBox="0 0 24 24" fill="none" stroke="currentColor" stroke-width="2" stroke-linecap="round" stroke-linejoin="round"><path d="M2 5h20" />
  <path d="M6 12h12" />
  <path d="M9 19h6" /></symbol><symbol id="library-big" viewBox="0 0 24 24" fill="none" stroke="currentColor" stroke-width="2" stroke-linecap="round" stroke-linejoin="round"><rect width="8" height="18" x="3" y="3" rx="1" />
  <path d="M7 3v18" />
  <path d="M20.4 18.9c.2.5-.1 1.1-.6 1.3l-1.9.7c-.5.2-1.1-.1-1.3-.6L11.1 5.1c-.2-.5.1-1.1.6-1.3l1.9-.7c.5-.2 1.1.1 1.3.6Z" /></symbol><symbol id="book-open" viewBox="0 0 24 24" fill="none" stroke="currentColor" stroke-width="2" stroke-linecap="round" stroke-linejoin="round"><path d="M12 7v14" />
  <path d="M3 18a1 1 0 0 1-1-1V4a1 1 0 0 1 1-1h5a4 4 0 0 1 4 4 4 4 0 0 1 4-4h5a1 1 0 0 1 1 1v13a1 1 0 0 1-1 1h-6a3 3 0 0 0-3 3 3 3 0 0 0-3-3z" /></symbol><symbol id="table-of-contents" viewBox="0 0 24 24" fill="none" stroke="currentColor" stroke-width="2" stroke-linecap="round" stroke-linejoin="round"><path d="M16 5H3" />
  <path d="M16 12H3" />
  <path d="M16 19H3" />
  <path d="M21 5h.01" />
  <path d="M21 12h.01" />
  <path d="M21 19h.01" /></symbol><symbol id="search" viewBox="0 0 24 24" fill="none" stroke="currentColor" stroke-width="2" stroke-linecap="round" stroke-linejoin="round"><path d="m21 21-4.34-4.34" />
  <circle cx="11" cy="11" r="8" /></symbol><symbol id="sticky-note" viewBox="0 0 24 24" fill="none" stroke="currentColor" stroke-width="2" stroke-linecap="round" stroke-linejoin="round"><path d="M21 9a2.4 2.4 0 0 0-.706-1.706l-3.588-3.588A2.4 2.4 0 0 0 15 3H5a2 2 0 0 0-2 2v14a2 2 0 0 0 2 2h14a2 2 0 0 0 2-2z" />
  <path d="M15 3v5a1 1 0 0 0 1 1h5" /></symbol><symbol id="chevron-up" viewBox="0 0 24 24" fill="none" stroke="currentColor" stroke-width="2" stroke-linecap="round" stroke-linejoin="round"><path d="m18 15-6-6-6 6" /></symbol><symbol id="chevron-down" viewBox="0 0 24 24" fill="none" stroke="currentColor" stroke-width="2" stroke-linecap="round" stroke-linejoin="round"><path d="m6 9 6 6 6-6" /></symbol><symbol id="type" viewBox="0 0 24 24" fill="none" stroke="currentColor" stroke-width="2" stroke-linecap="round" stroke-linejoin="round"><path d="M12 4v16" />
  <path d="M4 7V5a1 1 0 0 1 1-1h14a1 1 0 0 1 1 1v2" />
  <path d="M9 20h6" /></symbol><symbol id="share-2" viewBox="0 0 24 24" fill="none" stroke="currentColor" stroke-width="2" stroke-linecap="round" stroke-linejoin="round"><circle cx="18" cy="5" r="3" />
  <circle cx="6" cy="12" r="3" />
  <circle cx="18" cy="19" r="3" />
  <line x1="8.59" x2="15.42" y1="13.51" y2="17.49" />
  <line x1="15.41" x2="8.59" y1="6.51" y2="10.49" /></symbol><symbol id="arrow-left" viewBox="0 0 24 24" fill="none" stroke="currentColor" stroke-width="2" stroke-linecap="round" stroke-linejoin="round"><path d="m12 19-7-7 7-7" />
  <path d="M19 12H5" /></symbol><symbol id="refresh-cw" viewBox="0 0 24 24" fill="none" stroke="currentColor" stroke-width="2" stroke-linecap="round" stroke-linejoin="round"><path d="M3 12a9 9 0 0 1 9-9 9.75 9.75 0 0 1 6.74 2.74L21 8" />
  <path d="M21 3v5h-5" />
  <path d="M21 12a9 9 0 0 1-9 9 9.75 9.75 0 0 1-6.74-2.74L3 16" />
  <path d="M8 16H3v5" /></symbol><symbol id="globe" viewBox="0 0 24 24" fill="none" stroke="currentColor" stroke-width="2" stroke-linecap="round" stroke-linejoin="round"><circle cx="12" cy="12" r="10" />
  <path d="M12 2a14.5 14.5 0 0 0 0 20 14.5 14.5 0 0 0 0-20" />
  <path d="M2 12h20" /></symbol><symbol id="book-a" viewBox="0 0 24 24" fill="none" stroke="currentColor" stroke-width="2" stroke-linecap="round" stroke-linejoin="round"><path d="M4 19.5v-15A2.5 2.5 0 0 1 6.5 2H19a1 1 0 0 1 1 1v18a1 1 0 0 1-1 1H6.5a1 1 0 0 1 0-5H20" />
  <path d="m8 13 4-7 4 7" />
  <path d="M9.1 11h5.7" /></symbol><symbol id="map" viewBox="0 0 24 24" fill="none" stroke="currentColor" stroke-width="2" stroke-linecap="round" stroke-linejoin="round"><path d="M14.106 5.553a2 2 0 0 0 1.788 0l3.659-1.83A1 1 0 0 1 21 4.619v12.764a1 1 0 0 1-.553.894l-4.553 2.277a2 2 0 0 1-1.788 0l-4.212-2.106a2 2 0 0 0-1.788 0l-3.659 1.83A1 1 0 0 1 3 19.381V6.618a1 1 0 0 1 .553-.894l4.553-2.277a2 2 0 0 1 1.788 0z" />
  <path d="M15 5.764v15" />
  <path d="M9 3.236v15" /></symbol><symbol id="highlighter" viewBox="0 0 24 24" fill="none" stroke="currentColor" stroke-width="2" stroke-linecap="round" stroke-linejoin="round"><path d="m9 11-6 6v3h9l3-3" />
  <path d="m22 12-4.6 4.6a2 2 0 0 1-2.8 0l-5.2-5.2a2 2 0 0 1 0-2.8L14 4" /></symbol><symbol id="save" viewBox="0 0 24 24" fill="none" stroke="currentColor" stroke-width="2" stroke-linecap="round" stroke-linejoin="round"><path d="M15.2 3a2 2 0 0 1 1.4.6l3.8 3.8a2 2 0 0 1 .6 1.4V19a2 2 0 0 1-2 2H5a2 2 0 0 1-2-2V5a2 2 0 0 1 2-2z" />
  <path d="M17 21v-7a1 1 0 0 0-1-1H8a1 1 0 0 0-1 1v7" />
  <path d="M7 3v4a1 1 0 0 0 1 1h7" /></symbol><symbol id="x" viewBox="0 0 24 24" fill="none" stroke="currentColor" stroke-width="2" stroke-linecap="round" stroke-linejoin="round"><path d="M18 6 6 18" />
  <path d="m6 6 12 12" /></symbol><symbol id="trash-2" viewBox="0 0 24 24" fill="none" stroke="currentColor" stroke-width="2" stroke-linecap="round" stroke-linejoin="round"><path d="M10 11v6" />
  <path d="M14 11v6" />
  <path d="M19 6v14a2 2 0 0 1-2 2H7a2 2 0 0 1-2-2V6" />
  <path d="M3 6h18" />
  <path d="M8 6V4a2 2 0 0 1 2-2h4a2 2 0 0 1 2 2v2" /></symbol><symbol id="upload" viewBox="0 0 24 24" fill="none" stroke="currentColor" stroke-width="2" stroke-linecap="round" stroke-linejoin="round"><path d="M12 3v12" />
  <path d="m17 8-5-5-5 5" />
  <path d="M21 15v4a2 2 0 0 1-2 2H5a2 2 0 0 1-2-2v-4" /></symbol><symbol id="smartphone" viewBox="0 0 24 24" fill="none" stroke="currentColor" stroke-width="2" stroke-linecap="round" stroke-linejoin="round"><rect width="14" height="20" x="5" y="2" rx="2" ry="2" />
  <path d="M12 18h.01" /></symbol><symbol id="wifi" viewBox="0 0 24 24" fill="none" stroke="currentColor" stroke-width="2" stroke-linecap="round" stroke-linejoin="round"><path d="M12 20h.01" />
  <path d="M2 8.82a15 15 0 0 1 20 0" />
  <path d="M5 12.859a10 10 0 0 1 14 0" />
  <path d="M8.5 16.429a5 5 0 0 1 7 0" /></symbol><symbol id="wifi-off" viewBox="0 0 24 24" fill="none" stroke="currentColor" stroke-width="2" stroke-linecap="round" stroke-linejoin="round"><path d="M12 20h.01" />
  <path d="M8.5 16.429a5 5 0 0 1 7 0" />
  <path d="M5 12.859a10 10 0 0 1 5.17-2.69" />
  <path d="M19 12.859a10 10 0 0 0-2.007-1.523" />
  <path d="M2 8.82a15 15 0 0 1 4.177-2.643" />
  <path d="M22 8.82a15 15 0 0 0-11.288-3.764" />
  <path d="m2 2 20 20" /></symbol><symbol id="quote" viewBox="0 0 24 24" fill="none" stroke="currentColor" stroke-width="2" stroke-linecap="round" stroke-linejoin="round"><path d="M16 3a2 2 0 0 0-2 2v6a2 2 0 0 0 2 2 1 1 0 0 1 1 1v1a2 2 0 0 1-2 2 1 1 0 0 0-1 1v2a1 1 0 0 0 1 1 6 6 0 0 0 6-6V5a2 2 0 0 0-2-2z" />
  <path d="M5 3a2 2 0 0 0-2 2v6a2 2 0 0 0 2 2 1 1 0 0 1 1 1v1a2 2 0 0 1-2 2 1 1 0 0 0-1 1v2a1 1 0 0 0 1 1 6 6 0 0 0 6-6V5a2 2 0 0 0-2-2z" /></symbol><symbol id="reply" viewBox="0 0 24 24" fill="none" stroke="currentColor" stroke-width="2" stroke-linecap="round" stroke-linejoin="round"><path d="M20 18v-2a4 4 0 0 0-4-4H4" />
  <path d="m9 17-5-5 5-5" /></symbol><symbol id="github" viewBox="0 0 24 24"><path fill="currentColor" fill-rule="evenodd" d="M12 2C6.48 2 2 6.58 2 12.01c0 4.42 2.87 8.17 6.84 9.5.5.09.68-.22.68-.48 0-.24-.01-.87-.01-1.7-2.78.62-3.37-1.36-3.37-1.36-.45-1.17-1.12-1.48-1.12-1.48-.92-.64.07-.63.07-.63 1.02.08 1.55 1.06 1.55 1.06.9 1.56 2.36 1.11 2.94.85.09-.67.35-1.11.63-1.37-2.22-.26-4.56-1.14-4.56-5.07 0-1.12.39-2.03 1.03-2.75-.1-.26-.45-1.3.1-2.7 0 0 .84-.28 2.75 1.05A9.2 9.2 0 0112 6.8c.84 0 1.68.11 2.47.33 1.91-1.33 2.75-1.05 2.75-1.05.55 1.4.2 2.44.1 2.7.64.72 1.03 1.63 1.03 2.75 0 3.94-2.34 4.81-4.57 5.06.36.32.68.94.68 1.9 0 1.37-.01 2.47-.01 2.81 0 .27.18.58.69.48A10.01 10.01 0 0022 12.01C22 6.58 17.52 2 12 2z"/></symbol></svg>
